<svg id="Laag_1" data-name="Laag 1" xmlns="http://www.w3.org/2000/svg" viewBox="0 0 33 33"><defs><style>.cls-1{fill-rule:evenodd;}</style></defs><g id="instagram"><path id="Path_160" data-name="Path 160" class="cls-1" d="M16,9a7.5,7.5,0,1,0,7.5,7.5A7.5,7.5,0,0,0,16,9Zm-4.5,7.5A4.5,4.5,0,1,0,16,12,4.49,4.49,0,0,0,11.5,16.5Z"/><path id="Path_161" data-name="Path 161" d="M25,6a1.5,1.5,0,1,0,1.5,1.5A1.5,1.5,0,0,0,25,6Z"/><path id="Path_162" data-name="Path 162" class="cls-1" d="M5.5,0a6,6,0,0,0-6,6V27a6,6,0,0,0,6,6h21a6,6,0,0,0,6-6V6a6,6,0,0,0-6-6Zm21,3H5.5a3,3,0,0,0-3,3V27a3,3,0,0,0,3,3h21a3,3,0,0,0,3-3V6A3,3,0,0,0,26.5,3Z"/></g></svg>