<svg xmlns="http://www.w3.org/2000/svg" viewBox="0 0 252.15 58.3"><defs><style>.cls-1{isolation:isolate;}.cls-2{fill:#e62335;}</style></defs><g id="Logo"><g id="How_many_guests_ARE_COMING_FOR_DINER" data-name="How many guests ARE COMING FOR DINER" class="cls-1"><g class="cls-1"><path class="cls-2" d="M4.85,2.38a2.15,2.15,0,0,1,2.08,1.7A3.5,3.5,0,0,1,7,4.62v8.7h6.57V4.68a2.16,2.16,0,0,1,1.69-2.19,3.51,3.51,0,0,1,.55-.05,2.14,2.14,0,0,1,2.08,1.69,3.62,3.62,0,0,1,.05.55V26.39a2.16,2.16,0,0,1-1.69,2.19,3.74,3.74,0,0,1-.55.05,2.13,2.13,0,0,1-2.08-1.69,2.68,2.68,0,0,1,0-.55V17.7H7v8.64a2.14,2.14,0,0,1-1.69,2.18,2.72,2.72,0,0,1-.55.06,2.15,2.15,0,0,1-2.08-1.7,3.5,3.5,0,0,1-.05-.54V4.62A2.14,2.14,0,0,1,4.3,2.44,2.72,2.72,0,0,1,4.85,2.38Zm-.6,2.19c0,.36.23.55.55.55s.54-.23.54-.55S5.11,4,4.8,4,4.25,4.25,4.25,4.57Zm0,2.73c0,.37.23.55.55.55s.54-.23.54-.55-.23-.54-.54-.54S4.25,7,4.25,7.3Zm0,2.74c0,.36.23.55.55.55s.54-.23.54-.55-.23-.55-.54-.55S4.25,9.72,4.25,10Zm0,2.73c0,.37.23.55.55.55s.54-.23.54-.55-.23-.54-.54-.54S4.25,12.45,4.25,12.77Zm0,2.74c0,.36.23.54.55.54s.54-.22.54-.54S5.11,15,4.8,15,4.25,15.19,4.25,15.51Zm0,2.73c0,.37.23.55.55.55s.54-.23.54-.55-.23-.54-.54-.54S4.25,17.92,4.25,18.24Zm0,2.74c0,.36.23.54.55.54s.54-.22.54-.54-.23-.55-.54-.55S4.25,20.66,4.25,21Zm0,2.73c0,.37.23.55.55.55s.54-.23.54-.55-.23-.55-.54-.55S4.25,23.39,4.25,23.71Zm0,2.74c0,.36.23.54.55.54s.54-.23.54-.54-.23-.55-.54-.55S4.25,26.13,4.25,26.45ZM7,15.51c0,.36.23.54.55.54s.55-.22.55-.54S7.85,15,7.53,15,7,15.19,7,15.51Zm2.74,0q.06.54.54.54c.37,0,.55-.22.55-.54s-.23-.55-.55-.55S9.72,15.19,9.72,15.51Zm2.73,0c.05.36.23.54.55.54s.55-.22.55-.54S13.32,15,13,15,12.45,15.19,12.45,15.51ZM15.19,4.57c0,.36.22.55.54.55s.55-.23.55-.55S16.05,4,15.73,4,15.19,4.25,15.19,4.57Zm0,2.73c0,.37.22.55.54.55s.55-.23.55-.55-.23-.54-.55-.54S15.19,7,15.19,7.3Zm0,2.74c0,.36.22.55.54.55s.55-.23.55-.55-.23-.55-.55-.55S15.19,9.72,15.19,10Zm0,2.73c0,.37.22.55.54.55s.55-.23.55-.55-.23-.54-.55-.54S15.19,12.45,15.19,12.77Zm0,2.74q.06.54.54.54c.37,0,.55-.22.55-.54s-.23-.55-.55-.55S15.19,15.19,15.19,15.51Zm0,2.73c0,.37.22.55.54.55s.55-.23.55-.55-.23-.54-.55-.54S15.19,17.92,15.19,18.24Zm0,2.74q.06.54.54.54c.37,0,.55-.22.55-.54s-.23-.55-.55-.55S15.19,20.66,15.19,21Zm0,2.73c0,.37.22.55.54.55s.55-.23.55-.55-.23-.55-.55-.55S15.19,23.39,15.19,23.71Zm0,2.74q.06.54.54.54c.37,0,.55-.23.55-.54s-.23-.55-.55-.55S15.19,26.13,15.19,26.45Z"/></g><g class="cls-1"><path class="cls-2" d="M28.26,6.13a6,6,0,0,1,5.3,3,7.61,7.61,0,0,1,.94,3.46V22.3a7,7,0,0,1-1.83,4.55,6.33,6.33,0,0,1-4.45,1.78h-.57a6,6,0,0,1-5.29-2.9,7,7,0,0,1-1-3.38V12.41a6.82,6.82,0,0,1,2.16-4.82A7.17,7.17,0,0,1,27,6.13ZM22.78,12.7c0,.31.19.46.47.46s.47-.19.47-.46-.2-.47-.47-.47S22.78,12.42,22.78,12.7Zm0,1.73c0,.31.19.47.47.47s.47-.2.47-.47-.2-.47-.47-.47S22.78,14.16,22.78,14.43Zm0,2.34c0,.32.19.47.47.47s.47-.19.47-.47-.2-.47-.47-.47S22.78,16.5,22.78,16.77Zm0,2.35c0,.31.19.47.47.47s.47-.2.47-.47-.2-.47-.47-.47S22.78,18.84,22.78,19.12Zm0,2.34c0,.31.19.47.47.47s.47-.2.47-.47-.2-.47-.47-.47S22.78,21.19,22.78,21.46Zm.28,2.3c0,.31.19.47.47.47s.47-.2.47-.47-.2-.47-.47-.47S23.06,23.48,23.06,23.76Zm.23-13.31c0,.31.2.46.47.46s.47-.19.47-.46S24,10,23.76,10,23.29,10.17,23.29,10.45Zm1,15.28c0,.31.2.47.47.47s.47-.2.47-.47-.19-.47-.47-.47S24.32,25.45,24.32,25.73Zm.47-17c0,.23.16.37.47.42h0a.37.37,0,0,0,.42-.42V8.66c0-.31-.19-.46-.47-.46S24.86,8.37,24.79,8.71Zm.33,4.5v8.34q0,3.33,2.81,3.33t2.82-3.37V13.35c0-1.86-.55-2.95-1.64-3.28a5.68,5.68,0,0,0-1.18-.19Q25.13,9.88,25.12,13.21Zm1.31,13.45c0,.32.2.47.47.47s.47-.19.47-.47-.19-.46-.47-.46S26.43,26.39,26.43,26.66ZM27,8c0,.31.2.47.47.47S28,8.28,28,8s-.19-.47-.47-.47S27,7.73,27,8Zm1.69,18.65c0,.23.16.37.47.43h.05a.37.37,0,0,0,.42-.43v0c0-.32-.2-.47-.47-.47S28.79,26.32,28.73,26.66Zm.61-18.37c0,.31.2.47.47.47s.47-.2.47-.47-.2-.47-.47-.47S29.34,8,29.34,8.29Zm1.45,17.25c0,.31.2.47.47.47s.47-.2.47-.47-.19-.47-.47-.47S30.79,25.27,30.79,25.54Zm.43-15.89v0c0,.31.19.46.46.46s.41-.17.47-.51-.15-.37-.47-.42h0A.37.37,0,0,0,31.22,9.65Zm.7,13.87c0,.32.19.47.47.47s.47-.19.47-.47-.2-.47-.47-.47S31.92,23.25,31.92,23.52Zm.14-11.67c0,.25.17.41.51.47s.37-.16.43-.47v0a.37.37,0,0,0-.43-.42h0C32.22,11.42,32.06,11.58,32.06,11.85Zm.09,2.35c0,.31.2.46.47.46s.47-.19.47-.46-.2-.47-.47-.47S32.15,13.92,32.15,14.2Zm0,2.34c0,.31.2.47.47.47s.47-.2.47-.47-.2-.47-.47-.47S32.15,16.27,32.15,16.54Zm0,2.34c0,.32.2.47.47.47s.47-.19.47-.47-.2-.47-.47-.47S32.15,18.61,32.15,18.88Zm0,2.35c0,.31.2.47.47.47s.47-.2.47-.47-.2-.47-.47-.47S32.15,21,32.15,21.23Z"/><path class="cls-2" d="M39.38,6.13c1.15,0,1.87,1,2.15,2.91Q44,18.64,44,18.84h.09Q46.83,7.49,47,7.16a2,2,0,0,1,1.78-1c.87,0,1.47.57,1.83,1.69q2.71,10.92,2.71,11h.1q2.72-11.17,3-11.68a1.92,1.92,0,0,1,1.74-1c.81,0,1.4.5,1.78,1.5a2.52,2.52,0,0,1,0,.42q0,.45-2.81,11.49Q55.27,27.28,55,27.7a1.92,1.92,0,0,1-1.69.93c-1.15,0-1.87-1-2.15-2.9q-2.44-9.6-2.44-9.8h-.09q-2.77,11.36-3,11.67a1.87,1.87,0,0,1-1.73,1c-1.16,0-1.88-1-2.16-2.9Q37.46,8.5,37.45,8.1V8a1.84,1.84,0,0,1,1.46-1.78A2.59,2.59,0,0,1,39.38,6.13ZM38.86,8c0,.31.2.47.47.47s.47-.2.47-.47-.2-.47-.47-.47S38.86,7.73,38.86,8Zm.56,2.29c0,.25.17.41.52.47s.37-.15.42-.47v0a.37.37,0,0,0-.42-.42h0C39.58,9.87,39.42,10,39.42,10.3ZM40,12.55c0,.32.19.47.46.47s.47-.19.47-.47-.19-.46-.47-.46S40,12.28,40,12.55Zm.56,2.3c0,.25.17.41.51.47s.37-.16.43-.47v0a.38.38,0,0,0-.43-.42h0C40.7,14.42,40.55,14.58,40.55,14.85Zm.56,2.3c0,.22.16.37.47.42h.05c.31,0,.46-.2.46-.47s-.17-.4-.51-.47S41.17,16.8,41.11,17.15Zm.61,2.2v0c0,.31.2.47.47.47s.4-.17.47-.52-.16-.37-.47-.42h0A.37.37,0,0,0,41.72,19.35Zm.56,2.3c0,.31.2.47.47.47s.47-.2.47-.47-.2-.47-.47-.47S42.28,21.37,42.28,21.65Zm.56,2.25V24c0,.31.2.46.47.46s.41-.17.47-.51-.15-.37-.47-.42h0A.38.38,0,0,0,42.84,23.9Zm.57,2.3c0,.31.19.46.47.46s.46-.19.46-.46-.19-.47-.46-.47S43.41,25.92,43.41,26.2ZM44,25c0,.32.2.47.47.47s.47-.19.47-.47-.2-.47-.47-.47S44,24.75,44,25Zm.56-2.25c0,.32.2.47.47.47s.47-.19.47-.47-.2-.47-.47-.47S44.53,22.5,44.53,22.77Zm.56-2.25c0,.23.16.37.47.43h0a.38.38,0,0,0,.42-.43v0c0-.32-.19-.47-.47-.47S45.16,20.18,45.09,20.52Zm.61-2.34v.05c0,.31.2.47.47.47s.41-.18.47-.52-.15-.37-.47-.42h0A.37.37,0,0,0,45.7,18.18Zm.57-2.25V16a.37.37,0,0,0,.42.42h.05c.31,0,.46-.2.46-.47s-.17-.41-.51-.47S46.32,15.62,46.27,15.93Zm.56-2.25c0,.31.19.47.47.47s.47-.2.47-.47-.2-.47-.47-.47S46.83,13.41,46.83,13.68Zm.56-2.3c0,.32.2.47.47.47s.47-.19.47-.47-.2-.47-.47-.47S47.39,11.11,47.39,11.38ZM48,9.13c0,.32.2.47.47.47a1.43,1.43,0,0,0,.28,0,.53.53,0,0,0,.29.1c.31,0,.46-.2.46-.47s-.19-.47-.46-.47l-.29,0a.56.56,0,0,0-.28-.1C48.11,8.7,48,8.86,48,9.13Zm1.13,2.3c0,.31.19.47.47.47s.47-.2.47-.47-.2-.47-.47-.47S49.08,11.16,49.08,11.43Zm.56,2.3c0,.25.17.4.52.47s.36-.16.42-.47v-.05a.37.37,0,0,0-.42-.42h0C49.8,13.3,49.64,13.45,49.64,13.73ZM50.25,16v0a.38.38,0,0,0,.42.43h0c.31,0,.47-.2.47-.47s-.17-.41-.52-.47S50.31,15.66,50.25,16Zm.56,2.25v0c0,.32.2.47.47.47s.41-.17.47-.51-.16-.37-.47-.43h0A.38.38,0,0,0,50.81,18.23Zm.57,2.29c0,.32.19.47.46.47s.47-.19.47-.47-.19-.47-.47-.47S51.38,20.25,51.38,20.52Zm.56,2.3c0,.31.19.47.47.47s.47-.2.47-.47-.2-.47-.47-.47S51.94,22.55,51.94,22.82Zm.56,2.25c0,.31.2.47.47.47s.47-.2.47-.47-.2-.47-.47-.47S52.5,24.8,52.5,25.07Zm.56,1.08c0,.31.2.47.47.47s.47-.2.47-.47-.19-.47-.47-.47S53.06,25.87,53.06,26.15Zm.57-2.25c0,.31.19.47.46.47s.47-.2.47-.47-.19-.47-.47-.47S53.63,23.62,53.63,23.9Zm.56-2.25c0,.22.15.37.47.42h0a.37.37,0,0,0,.43-.42v0c0-.31-.2-.47-.47-.47S54.25,21.3,54.19,21.65Zm.61-2.35v.05c0,.31.19.47.47.47s.4-.17.47-.52-.16-.36-.47-.42h-.05A.37.37,0,0,0,54.8,19.3Zm.56-2.25c0,.32.2.47.47.47s.47-.19.47-.47-.2-.46-.47-.46S55.36,16.78,55.36,17.05Zm.56-2.25c0,.32.2.47.47.47s.47-.19.47-.47-.19-.46-.47-.46S55.92,14.53,55.92,14.8Zm.57-2.29c0,.31.19.47.46.47s.47-.2.47-.47S57.23,12,57,12,56.49,12.23,56.49,12.51Zm.56-2.25c0,.31.19.47.47.47s.47-.2.47-.47-.2-.47-.47-.47S57.05,10,57.05,10.26Z"/></g><g class="cls-1"><path class="cls-2" d="M72.31,2.38c1.2,0,2.06,1,2.57,3Q80.34,19.77,80.4,20.1h.11q6-16.19,6.34-16.79a2.27,2.27,0,0,1,1.86-.93,2.14,2.14,0,0,1,2.08,1.7,2.62,2.62,0,0,1,.06.54V26.34a2.15,2.15,0,0,1-1.7,2.18,2.64,2.64,0,0,1-.55.06,2.13,2.13,0,0,1-2.07-1.7,2.62,2.62,0,0,1-.06-.54V16.77h0Q82.64,27,82.32,27.65a2.36,2.36,0,0,1-1.92,1c-1.2,0-2.06-1-2.57-2.95-2.22-5.83-3.34-8.81-3.34-8.91h0v9.62a2.17,2.17,0,0,1-1.7,2.19,3.5,3.5,0,0,1-.54.05,2.13,2.13,0,0,1-2.08-1.69,2.68,2.68,0,0,1-.05-.55V4.62a2.14,2.14,0,0,1,1.69-2.18A2.64,2.64,0,0,1,72.31,2.38Zm-.6,2.19c0,.36.22.55.54.55s.55-.23.55-.55S72.57,4,72.25,4,71.71,4.25,71.71,4.57Zm1,2.35a.91.91,0,0,0-.44-.16c-.36,0-.54.23-.54.54s.22.55.54.55a.44.44,0,0,0,.49-.38,1,1,0,0,0,.5.22q.44,0,.54-.6c0-.27-.18-.43-.54-.5h-.06A.56.56,0,0,0,72.69,6.92Zm-1,3.12c0,.36.22.55.54.55s.55-.23.55-.55-.23-.55-.55-.55S71.71,9.72,71.71,10Zm0,2.73c0,.37.22.55.54.55s.55-.23.55-.55-.23-.54-.55-.54S71.71,12.45,71.71,12.77Zm0,2.74q.06.54.54.54c.37,0,.55-.22.55-.54s-.23-.55-.55-.55S71.71,15.19,71.71,15.51Zm0,2.73c0,.37.22.55.54.55s.55-.23.55-.55-.23-.54-.55-.54S71.71,17.92,71.71,18.24Zm0,2.74q.06.54.54.54c.37,0,.55-.22.55-.54s-.23-.55-.55-.55S71.71,20.66,71.71,21Zm0,2.73c0,.37.22.55.54.55s.55-.23.55-.55-.23-.55-.55-.55S71.71,23.39,71.71,23.71Zm0,2.74q.06.54.54.54c.37,0,.55-.23.55-.54s-.23-.55-.55-.55S71.71,26.13,71.71,26.45ZM73.62,9.71c0,.37.23.55.55.55s.54-.23.54-.55-.22-.55-.54-.55S73.62,9.39,73.62,9.71Zm1,2.52v0c.05.37.23.55.55.55s.47-.2.55-.6-.2-.48-.6-.55S74.67,11.86,74.6,12.23Zm.93,2.57c0,.36.23.54.55.54s.55-.22.55-.54-.23-.55-.55-.55S75.53,14.48,75.53,14.8Zm1,2.57c0,.36.23.54.55.54s.54-.22.54-.54-.23-.55-.54-.55S76.52,17.05,76.52,17.37Zm.93,2.57c0,.36.23.54.54.54s.55-.22.55-.54-.23-.55-.55-.55S77.45,19.62,77.45,19.94Zm1,2.57c0,.36.23.54.55.54s.55-.22.55-.54S79.3,22,79,22,78.43,22.19,78.43,22.51Zm.93,2.57q0,.44.6.54a1.32,1.32,0,0,1,.44-.1.5.5,0,0,0,.49.32c.37,0,.55-.22.55-.54s-.23-.55-.55-.55l-.43.11a.51.51,0,0,0-.5-.33h0C79.54,24.58,79.36,24.76,79.36,25.08Zm2-2.41v.06c0,.36.23.54.55.54s.47-.2.54-.6-.18-.43-.54-.49h-.06A.43.43,0,0,0,81.33,22.67Zm.93-2.51c0,.36.23.54.55.54s.54-.22.54-.54-.22-.55-.54-.55S82.26,19.84,82.26,20.16Zm1-2.57c.05.36.23.54.55.54s.55-.22.55-.54-.23-.55-.55-.55S83.24,17.27,83.24,17.59ZM84.17,15c0,.36.23.54.55.54s.55-.23.55-.54-.23-.55-.55-.55S84.17,14.7,84.17,15Zm1-2.57v.05a.43.43,0,0,0,.49.49h.06c.36,0,.54-.23.54-.54s-.2-.48-.6-.55S85.22,12.08,85.16,12.45Zm.93-2.52c0,.29.2.47.6.55s.43-.19.49-.55V9.87a.43.43,0,0,0-.49-.49h0C86.27,9.43,86.09,9.61,86.09,9.93Zm2-2.84h0c0-.19-.18-.28-.44-.28s-.55.23-.55.55.23.55.55.55.55-.23.55-.55h0c0,.18.17.27.44.27s.55-.22.55-.54-.23-.55-.55-.55S88.11,6.77,88.11,7.09ZM88,4.79c0,.36.23.55.55.55h0c.37,0,.55-.23.55-.55s-.23-.55-.55-.55h0C88.18,4.29,88,4.47,88,4.79Zm.11,5c0,.36.23.55.55.55s.55-.23.55-.55-.23-.55-.55-.55S88.11,9.5,88.11,9.82Zm0,2.73c0,.37.23.55.55.55s.55-.23.55-.55S89,12,88.66,12,88.11,12.24,88.11,12.55Zm0,2.74c0,.36.23.55.55.55s.55-.23.55-.55-.23-.55-.55-.55S88.11,15,88.11,15.29Zm0,2.73c0,.37.23.55.55.55s.55-.23.55-.55-.23-.54-.55-.54S88.11,17.7,88.11,18Zm0,2.74c0,.36.23.54.55.54s.55-.22.55-.54-.23-.55-.55-.55S88.11,20.44,88.11,20.76Zm0,2.73c0,.37.23.55.55.55s.55-.23.55-.55S89,23,88.66,23,88.11,23.17,88.11,23.49Zm0,2.74c0,.36.23.54.55.54s.55-.22.55-.54-.23-.55-.55-.55S88.11,25.91,88.11,26.23Z"/></g><g class="cls-1"><path class="cls-2" d="M100.84,5.2h.59c2,0,3.68,1,5,3.12a12.8,12.8,0,0,1,1.51,6v12.3a1.94,1.94,0,0,1-1.51,2,2.93,2.93,0,0,1-.49,0,1.91,1.91,0,0,1-1.86-1.51,2.81,2.81,0,0,1,0-.49V18.87H98.2v7.76a1.91,1.91,0,0,1-1.51,1.95,2.09,2.09,0,0,1-.49.05,1.9,1.9,0,0,1-1.85-1.51,2.09,2.09,0,0,1,0-.49V14.28a11.5,11.5,0,0,1,2.19-6.94A5.78,5.78,0,0,1,100.84,5.2Zm-5.08,9.27c0,.33.21.49.49.49s.49-.2.49-.49-.21-.49-.49-.49S95.76,14.19,95.76,14.47Zm0,2.44c0,.33.21.49.49.49h0c.32,0,.49-.2.49-.49s-.21-.48-.49-.48h0C95.92,16.47,95.76,16.63,95.76,16.91Zm0,2.45c0,.32.21.48.49.48s.49-.2.49-.48-.21-.49-.49-.49S95.76,19.07,95.76,19.36Zm0,2.44c0,.32.21.49.49.49s.49-.21.49-.49-.21-.49-.49-.49S95.76,21.51,95.76,21.8Zm0,2.44c0,.32.21.49.49.49s.49-.21.49-.49-.21-.49-.49-.49S95.76,24,95.76,24.24Zm0,2.44c0,.32.21.49.49.49s.49-.21.49-.49-.21-.49-.49-.49S95.76,26.39,95.76,26.68ZM96.05,12c0,.33.21.49.49.49s.49-.2.49-.49-.2-.49-.49-.49S96.05,11.75,96.05,12Zm.74-2.29c0,.32.2.48.49.48s.48-.2.48-.48-.2-.49-.48-.49S96.79,9.45,96.79,9.74ZM98.2,15h5.86c0-2.55-.58-4.39-1.76-5.52a2.67,2.67,0,0,0-1.17-.34q-2.43,0-2.88,5A7.1,7.1,0,0,0,98.2,15Zm0,1.95c0,.33.21.49.49.49s.49-.2.49-.49-.2-.48-.49-.48S98.25,16.63,98.25,16.91Zm.1-9.08v0c0,.33.2.49.49.49s.42-.18.49-.54-.18-.42-.54-.49S98.41,7.51,98.35,7.83Zm2.29-.68c0,.32.21.49.49.49s.49-.21.49-.49-.2-.49-.49-.49S100.64,6.86,100.64,7.15Zm0,9.76c0,.33.21.49.49.49s.49-.2.49-.49-.2-.48-.49-.48S100.69,16.63,100.69,16.91Zm2.25-9.08c0,.33.2.49.49.49s.49-.2.49-.49-.21-.49-.49-.49S102.94,7.55,102.94,7.83Zm.19,9.08c.05.33.21.49.49.49s.49-.2.49-.49-.2-.48-.49-.48S103.13,16.63,103.13,16.91Zm1.32-7.22c0,.32.21.49.49.49s.49-.21.49-.49-.2-.49-.49-.49S104.45,9.4,104.45,9.69Zm.78,2.34c0,.33.21.49.49.49s.49-.2.49-.49-.2-.49-.49-.49S105.23,11.75,105.23,12Zm.3,2.39c0,.33.2.49.49.49s.48-.2.48-.49-.2-.48-.48-.48S105.53,14.14,105.53,14.42Zm0,2.45c0,.32.2.48.49.48s.48-.2.48-.48-.2-.49-.48-.49S105.53,16.58,105.53,16.87Zm0,2.44c0,.32.2.48.49.48s.48-.2.48-.48-.2-.49-.48-.49S105.53,19,105.53,19.31Zm0,2.44c0,.32.2.49.49.49s.48-.21.48-.49-.2-.49-.48-.49S105.53,21.46,105.53,21.75Zm0,2.44c0,.32.2.49.49.49s.48-.21.48-.49-.2-.49-.48-.49S105.53,23.9,105.53,24.19Zm0,2.44c0,.33.2.49.49.49s.48-.2.48-.49-.2-.49-.48-.49S105.53,26.35,105.53,26.63Z"/><path class="cls-2" d="M113.05,5.2q1.45,0,2.25,2.19s1.86,3.66,5.47,10.94h0V7.2a1.93,1.93,0,0,1,1.51-2,2.77,2.77,0,0,1,.49,0,1.9,1.9,0,0,1,1.85,1.51,2.09,2.09,0,0,1,0,.49V26.63a1.91,1.91,0,0,1-1.51,1.95,2.15,2.15,0,0,1-.49.05q-1.45,0-2.25-2.19S118.61,22.78,115,15.5H115V26.63a1.92,1.92,0,0,1-1.52,1.95,2.09,2.09,0,0,1-.49.05,1.9,1.9,0,0,1-1.85-1.51,2.81,2.81,0,0,1,0-.49V7.2a1.93,1.93,0,0,1,1.51-2A2.85,2.85,0,0,1,113.05,5.2Zm-.54,2c0,.32.21.49.49.49s.49-.21.49-.49-.2-.49-.49-.49S112.51,6.86,112.51,7.15Zm0,2.44c0,.32.21.49.49.49s.49-.21.49-.49-.2-.49-.49-.49S112.51,9.3,112.51,9.59Zm0,2.44c0,.33.21.49.49.49s.49-.2.49-.49-.2-.49-.49-.49S112.51,11.75,112.51,12Zm0,2.44c0,.33.21.49.49.49s.49-.2.49-.49-.2-.49-.49-.49S112.51,14.19,112.51,14.47Zm0,2.44c0,.33.21.49.49.49s.49-.2.49-.49-.2-.48-.49-.48S112.51,16.63,112.51,16.91Zm0,2.45c0,.32.21.48.49.48s.49-.2.49-.48-.2-.49-.49-.49S112.51,19.07,112.51,19.36Zm0,2.44c0,.32.21.49.49.49s.49-.21.49-.49-.2-.49-.49-.49S112.51,21.51,112.51,21.8Zm0,2.44c0,.32.21.49.49.49s.49-.21.49-.49-.2-.49-.49-.49S112.51,24,112.51,24.24Zm0,2.44c0,.32.21.49.49.49s.49-.21.49-.49-.2-.49-.49-.49S112.51,26.39,112.51,26.68Zm1.08-17.33q0,.39.54.48c.23,0,.38-.16.44-.48v0a.39.39,0,0,0-.44-.44h0C113.75,8.9,113.59,9.06,113.59,9.35Zm1.12,2.14v0c0,.33.21.49.49.49s.42-.18.49-.54-.18-.42-.54-.48S114.77,11.17,114.71,11.49Zm1.08,2.2c0,.33.2.49.48.49s.49-.2.49-.49-.2-.49-.49-.49S115.79,13.41,115.79,13.69Zm1.07,2.2c0,.26.18.42.54.49s.42-.18.49-.54-.17-.38-.49-.44h-.05C117,15.44,116.86,15.6,116.86,15.89Zm1.12,2.2c0,.32.21.48.49.48s.49-.2.49-.48-.2-.49-.49-.49S118,17.8,118,18.09Zm1.08,2.14c0,.33.2.49.49.49s.48-.2.48-.49-.2-.48-.48-.48S119.06,20,119.06,20.23Zm1.12,2.2v.05a.39.39,0,0,0,.44.44h0c.32,0,.49-.2.49-.49s-.18-.42-.54-.49S120.24,22.11,120.18,22.43Zm1.08,2.2c0,.32.2.49.48.49s.49-.21.49-.49-.2-.49-.49-.49S121.26,24.34,121.26,24.63Zm1-17.63c0,.33.2.49.49.49s.49-.2.49-.49-.21-.49-.49-.49S122.28,6.72,122.28,7Zm0,2.44c0,.33.2.49.49.49s.49-.2.49-.49-.21-.48-.49-.48S122.28,9.16,122.28,9.44Zm0,2.44c0,.33.2.49.49.49s.49-.2.49-.49-.21-.48-.49-.48S122.28,11.6,122.28,11.88Zm0,2.45c0,.32.2.48.49.48s.49-.2.49-.48-.21-.49-.49-.49S122.28,14,122.28,14.33Zm0,2.44c0,.32.2.49.49.49s.49-.21.49-.49-.21-.49-.49-.49S122.28,16.48,122.28,16.77Zm0,2.44c0,.32.2.49.49.49s.49-.21.49-.49-.21-.49-.49-.49S122.28,18.92,122.28,19.21Zm0,2.44c0,.33.2.49.49.49s.49-.2.49-.49-.21-.49-.49-.49S122.28,21.37,122.28,21.65Zm0,2.44c0,.33.2.49.49.49s.49-.2.49-.49-.21-.49-.49-.49S122.28,23.81,122.28,24.09Zm0,2.44c0,.33.2.49.49.49s.49-.2.49-.49-.21-.49-.49-.49S122.28,26.25,122.28,26.53Z"/><path class="cls-2" d="M129.8,4.8a1.92,1.92,0,0,1,1.86,1.52,2.81,2.81,0,0,1,.05.49V11.1q0,3.47,2.93,3.47T137.57,11V6.81a1.93,1.93,0,0,1,1.51-2,2.91,2.91,0,0,1,.49,0,1.92,1.92,0,0,1,1.86,1.52,2.77,2.77,0,0,1,0,.49v5A7.62,7.62,0,0,1,140.06,16a6.21,6.21,0,0,1-2.64,2,2.64,2.64,0,0,1-.83.24v8.4a1.91,1.91,0,0,1-1.51,1.95,2.15,2.15,0,0,1-.49.05,1.91,1.91,0,0,1-1.86-1.51,2.77,2.77,0,0,1,0-.49v-8.4A5.56,5.56,0,0,1,130,16.82a7.25,7.25,0,0,1-2.15-5v-5a1.94,1.94,0,0,1,1.52-2A2.8,2.8,0,0,1,129.8,4.8Zm-.53,2c0,.32.2.49.49.49s.48-.21.48-.49-.2-.49-.48-.49S129.27,6.47,129.27,6.76Zm0,2.44c0,.32.2.49.49.49s.48-.21.48-.49-.2-.49-.48-.49S129.27,8.91,129.27,9.2Zm0,2.44c0,.33.2.49.49.49s.48-.2.48-.49-.2-.49-.48-.49S129.27,11.36,129.27,11.64Zm.58,2.34v0a.39.39,0,0,0,.44.44h.05c.33,0,.49-.2.49-.49s-.18-.42-.54-.48S129.91,13.66,129.85,14Zm1.57,1.81v.05c0,.32.2.49.48.49s.49-.21.49-.49v-.05c0-.32-.2-.49-.49-.49S131.42,15.51,131.42,15.79Zm2.73.73c0,.33.2.49.49.49s.49-.2.49-.49-.21-.48-.49-.48S134.15,16.24,134.15,16.52Zm0,2.44c0,.33.2.49.49.49s.49-.2.49-.49-.21-.48-.49-.48S134.15,18.68,134.15,19Zm0,2.45c0,.32.2.48.49.48s.49-.2.49-.48-.21-.49-.49-.49S134.15,21.12,134.15,21.41Zm0,2.44c0,.32.2.49.49.49s.49-.21.49-.49-.21-.49-.49-.49S134.15,23.56,134.15,23.85Zm0,2.44c0,.32.2.49.49.49s.49-.21.49-.49-.21-.49-.49-.49S134.15,26,134.15,26.29Zm1.95-10.21v.1c0,.29.22.45.64.49a.5.5,0,0,0,.39-.49c-.07-.36-.23-.54-.49-.54h-.1C136.25,15.69,136.1,15.83,136.1,16.08Zm2-1.36c0,.32.2.49.49.49s.48-.21.48-.49-.2-.49-.48-.49S138.06,14.43,138.06,14.72Zm.88-2.25c0,.33.2.49.48.49s.49-.2.49-.49-.2-.49-.49-.49S138.94,12.19,138.94,12.47ZM139,7.59c0,.32.21.49.49.49s.49-.21.49-.49-.2-.49-.49-.49S139,7.3,139,7.59ZM139,10c0,.32.21.49.49.49s.49-.21.49-.49-.2-.49-.49-.49S139,9.74,139,10Z"/></g><g class="cls-1"><path class="cls-2" d="M159.23,2.38H160a6.49,6.49,0,0,1,5.42,3.12,13.06,13.06,0,0,1,1.91,7v.21a2.15,2.15,0,0,1-1.7,2.19,2.62,2.62,0,0,1-.54.06A2.15,2.15,0,0,1,163,13.27a12.88,12.88,0,0,0-.71-4.11A3.44,3.44,0,0,0,160.7,7a5,5,0,0,0-1-.22c-1.24,0-2.09.76-2.57,2.29a16.75,16.75,0,0,0-.71,4.6v3.61q0,5.53,2.41,6.83a4.91,4.91,0,0,0,1.42.17h2.73V20.43h-.76a7.38,7.38,0,0,1-1.09-.06,7.63,7.63,0,0,1-1.1.06h-.27a2.15,2.15,0,0,1-2.19-1.7,2.59,2.59,0,0,1-.05-.54,2.23,2.23,0,0,1,1.8-2.14,3.51,3.51,0,0,1,.55-.05H164q2.4,0,2.85.87a2.16,2.16,0,0,1,.49,1.43v8.09a2.17,2.17,0,0,1-1.7,2.19,3.5,3.5,0,0,1-.54.05h-5.74c-2.26,0-4.13-1.16-5.64-3.5A14.15,14.15,0,0,1,152,18.46v-5.3a16.57,16.57,0,0,1,1.47-6.95,9,9,0,0,1,1.81-2.35A6.77,6.77,0,0,1,159.23,2.38Zm-5.58,10.45c0,.36.23.54.54.54s.55-.22.55-.54-.23-.55-.55-.55S153.65,12.51,153.65,12.83Zm0,2.73c0,.37.23.55.54.55s.55-.23.55-.55-.23-.54-.55-.54S153.65,15.24,153.65,15.56Zm0,2.74c0,.36.23.54.54.54s.55-.22.55-.54-.23-.55-.55-.55S153.65,18,153.65,18.3Zm.33-8.15c0,.36.22.55.54.55s.55-.23.55-.55-.23-.55-.55-.55S154,9.83,154,10.15ZM154,21c0,.37.22.55.54.55s.55-.23.55-.55-.23-.55-.55-.55S154,20.71,154,21Zm.76-13.51c0,.3.2.48.6.55s.48-.2.55-.6-.18-.43-.55-.49h-.05C154.92,7,154.74,7.2,154.74,7.52Zm.11,16.08c.05.37.23.55.55.55s.54-.23.54-.55-.22-.55-.54-.55S154.85,23.28,154.85,23.6Zm1.59-18.21c0,.36.22.55.54.55s.55-.23.55-.55-.23-.55-.55-.55S156.44,5.07,156.44,5.39Zm.16,20.29c.05.36.23.55.55.55s.54-.23.54-.55-.22-.55-.54-.55S156.6,25.36,156.6,25.68ZM159,4.57c0,.36.22.55.54.55s.55-.23.55-.55-.23-.55-.55-.55S159,4.25,159,4.57Zm.11,13.67c0,.37.22.55.54.55s.55-.23.55-.55-.23-.54-.55-.54S159.12,17.92,159.12,18.24Zm0,8.21c.05.36.23.54.55.54s.54-.23.54-.54-.22-.55-.54-.55S159.17,26.13,159.17,26.45Zm2.41-21.17c0,.29.2.47.6.55s.43-.18.49-.55v0a.44.44,0,0,0-.49-.5h-.06C161.76,4.78,161.58,5,161.58,5.28Zm.22,12.91q.06.54.54.54c.37,0,.55-.22.55-.54s-.23-.55-.55-.55S161.8,17.87,161.8,18.19Zm.11,8.26q.06.54.54.54c.37,0,.55-.23.55-.54s-.23-.55-.55-.55S161.91,26.13,161.91,26.45ZM163.38,7.3c.05.37.23.55.55.55s.55-.23.55-.55-.23-.54-.55-.54S163.38,7,163.38,7.3Zm.88,2.57c0,.37.22.55.54.55s.55-.23.55-.55-.23-.54-.55-.54S164.26,9.56,164.26,9.87Zm.27,8.37c.05.37.23.55.55.55s.54-.23.54-.55-.22-.54-.54-.54S164.53,17.92,164.53,18.24Zm.06-5.63c0,.36.22.55.54.55s.55-.23.55-.55-.23-.55-.55-.55S164.59,12.29,164.59,12.61Zm0,8.31c0,.37.22.55.54.55s.55-.23.55-.55-.23-.55-.55-.55S164.59,20.6,164.59,20.92Zm0,2.74q.06.54.54.54c.37,0,.55-.22.55-.54s-.23-.55-.55-.55S164.59,23.34,164.59,23.66Zm0,2.73c0,.36.22.55.54.55s.55-.23.55-.55-.23-.55-.55-.55S164.59,26.07,164.59,26.39Z"/></g><g class="cls-1"><path class="cls-2" d="M172.69,6.13a1.83,1.83,0,0,1,1.78,1.46,2.58,2.58,0,0,1,.05.46v13.5q0,3.33,2.81,3.33t2.82-3.42V8.05a1.84,1.84,0,0,1,1.45-1.87,2.59,2.59,0,0,1,.47,0,1.84,1.84,0,0,1,1.78,1.46,2.58,2.58,0,0,1,.05.46V22.26a7.25,7.25,0,0,1-1.5,4.17,6.16,6.16,0,0,1-4.79,2.2h-.56a6,6,0,0,1-5.44-3.23,7.08,7.08,0,0,1-.84-3.14V8.05a1.84,1.84,0,0,1,1.45-1.87A2.69,2.69,0,0,1,172.69,6.13ZM172.18,8c0,.31.19.47.47.47s.46-.2.46-.47-.19-.47-.46-.47S172.18,7.73,172.18,8Zm0,2.34c0,.31.19.47.47.47s.46-.2.46-.47-.19-.47-.46-.47S172.18,10.08,172.18,10.35Zm0,2.35c0,.31.19.46.47.46s.46-.19.46-.46-.19-.47-.46-.47S172.18,12.42,172.18,12.7Zm0,2.34c0,.31.19.47.47.47s.46-.2.46-.47-.19-.47-.46-.47S172.18,14.77,172.18,15Zm0,2.34c0,.32.19.47.47.47s.46-.19.46-.47-.19-.47-.46-.47S172.18,17.11,172.18,17.38Zm0,2.35c0,.31.19.47.47.47s.46-.2.46-.47-.19-.47-.46-.47S172.18,19.45,172.18,19.73Zm0,2.34c0,.31.19.47.47.47s.46-.2.46-.47-.19-.47-.46-.47S172.18,21.8,172.18,22.07Zm.56,2.25v.05a.37.37,0,0,0,.42.42h.05c.31,0,.47-.2.47-.47s-.18-.41-.52-.47S172.79,24,172.74,24.32Zm1.5,1.73v.05c0,.31.19.47.47.47s.47-.2.47-.47v-.05c0-.31-.2-.46-.47-.46S174.24,25.78,174.24,26.05Zm2.2.71c0,.25.17.4.52.47s.36-.16.42-.47v-.05a.37.37,0,0,0-.42-.42h-.05C176.6,26.33,176.44,26.48,176.44,26.76Zm2.35-.33v.05a.37.37,0,0,0,.42.42h0c.32,0,.47-.2.47-.47s-.17-.41-.51-.47S178.84,26.12,178.79,26.43ZM180.61,25c0,.32.2.47.47.47s.47-.19.47-.47-.19-.47-.47-.47S180.61,24.75,180.61,25Zm.85-2.15c0,.31.19.47.47.47s.47-.2.47-.47-.2-.47-.47-.47S181.46,22.59,181.46,22.87Zm.09-14.07c0,.32.2.47.47.47s.47-.19.47-.47-.2-.46-.47-.46S181.55,8.53,181.55,8.8Zm0,2.35c0,.31.2.47.47.47s.47-.2.47-.47-.2-.47-.47-.47S181.55,10.87,181.55,11.15Zm0,2.34c0,.31.2.47.47.47s.47-.19.47-.47-.2-.47-.47-.47S181.55,13.22,181.55,13.49Zm0,2.35c0,.31.2.46.47.46s.47-.19.47-.46-.2-.47-.47-.47S181.55,15.56,181.55,15.84Zm0,2.34c0,.31.2.47.47.47s.47-.2.47-.47-.2-.47-.47-.47S181.55,17.91,181.55,18.18Zm0,2.34c0,.32.2.47.47.47s.47-.19.47-.47-.2-.47-.47-.47S181.55,20.25,181.55,20.52Z"/><path class="cls-2" d="M188.78,6.13h9.28a1.85,1.85,0,0,1,1.87,1.46,2.58,2.58,0,0,1,0,.46,1.84,1.84,0,0,1-1.45,1.79,2.71,2.71,0,0,1-.47,0H190.6v5.63h7.46A1.84,1.84,0,0,1,199.93,17a2.59,2.59,0,0,1,0,.47,1.84,1.84,0,0,1-1.45,1.78,2.79,2.79,0,0,1-.47.05H190.6v5.62H198a1.84,1.84,0,0,1,1.87,1.46,1.9,1.9,0,0,1,.05.46,1.83,1.83,0,0,1-1.45,1.79,2.63,2.63,0,0,1-.47,0h-9.23a1.84,1.84,0,0,1-1.88-1.45,2.59,2.59,0,0,1-.05-.47V8.05a1.85,1.85,0,0,1,1.46-1.87A2.59,2.59,0,0,1,188.78,6.13ZM188.26,8c0,.31.19.47.47.47s.47-.2.47-.47-.2-.47-.47-.47S188.26,7.73,188.26,8Zm0,2.34c0,.31.19.47.47.47s.47-.2.47-.47-.2-.47-.47-.47S188.26,10.08,188.26,10.35Zm0,2.35c0,.31.19.46.47.46s.47-.19.47-.46-.2-.47-.47-.47S188.26,12.42,188.26,12.7Zm0,2.34c0,.31.19.47.47.47s.47-.2.47-.47-.2-.47-.47-.47S188.26,14.77,188.26,15Zm0,2.34c0,.32.19.47.47.47s.47-.19.47-.47-.2-.47-.47-.47S188.26,17.11,188.26,17.38Zm0,2.35c0,.31.19.47.47.47s.47-.2.47-.47-.2-.47-.47-.47S188.26,19.45,188.26,19.73Zm0,2.34c0,.31.19.47.47.47s.47-.2.47-.47-.2-.47-.47-.47S188.26,21.8,188.26,22.07Zm0,2.34c0,.32.19.47.47.47s.47-.19.47-.47-.2-.46-.47-.46S188.26,24.14,188.26,24.41Zm0,2.35c0,.31.19.47.47.47s.47-.2.47-.47-.2-.47-.47-.47S188.26,26.48,188.26,26.76ZM190.6,8c0,.31.2.47.47.47s.47-.2.47-.47-.19-.47-.47-.47S190.6,7.73,190.6,8Zm0,9.37c0,.32.2.47.47.47s.47-.19.47-.47-.19-.47-.47-.47S190.6,17.11,190.6,17.38Zm0,9.38c0,.31.2.47.47.47s.47-.2.47-.47-.19-.47-.47-.47S190.6,26.48,190.6,26.76ZM193,8c0,.31.19.47.47.47s.46-.2.46-.47-.19-.47-.46-.47S193,7.73,193,8Zm0,9.37c0,.32.19.47.47.47s.46-.19.46-.47-.19-.47-.46-.47S193,17.11,193,17.38Zm0,9.38c0,.31.19.47.47.47s.46-.2.46-.47-.19-.47-.46-.47S193,26.48,193,26.76ZM195.29,8c0,.31.2.47.47.47s.47-.2.47-.47-.2-.47-.47-.47S195.29,7.73,195.29,8Zm0,9.37c0,.32.2.47.47.47s.47-.19.47-.47-.2-.47-.47-.47S195.29,17.11,195.29,17.38Zm0,9.38c0,.31.2.47.47.47s.47-.2.47-.47-.2-.47-.47-.47S195.29,26.48,195.29,26.76ZM197.63,8c0,.31.2.47.47.47s.47-.2.47-.47-.19-.47-.47-.47S197.63,7.73,197.63,8Zm0,9.37c0,.32.2.47.47.47s.47-.19.47-.47-.19-.47-.47-.47S197.63,17.11,197.63,17.38Zm0,9.38c0,.31.2.47.47.47s.47-.2.47-.47-.19-.47-.47-.47S197.63,26.48,197.63,26.76Z"/><path class="cls-2" d="M209.08,6.13h.84a6,6,0,0,1,4.88,2.53,7.19,7.19,0,0,1,1.26,3.85v.14a1.83,1.83,0,0,1-1.45,1.87,2.69,2.69,0,0,1-.47.05,1.82,1.82,0,0,1-1.78-1.45,6.11,6.11,0,0,0-.52-2.07,2.53,2.53,0,0,0-2.34-1.17A2.48,2.48,0,0,0,207,11.34a3.91,3.91,0,0,0-.28,1.26v.28a2.85,2.85,0,0,0,.85,2c.38.44,1.44.65,3.18.65a7,7,0,0,1,3.29,1.55,6.89,6.89,0,0,1,2,4.83v.37a6.13,6.13,0,0,1-6.23,6.33h-.66a6.08,6.08,0,0,1-5-2.48,6.87,6.87,0,0,1-1.21-3.7v-.29a1.84,1.84,0,0,1,1.45-1.87,2.59,2.59,0,0,1,.47-.05,1.84,1.84,0,0,1,1.78,1.46,6.4,6.4,0,0,0,.42,2,2.68,2.68,0,0,0,2.44,1.17A2.42,2.42,0,0,0,212,23.43a4.49,4.49,0,0,0,.28-1.31,3.16,3.16,0,0,0-1-2.39,5.64,5.64,0,0,0-3-.52,7.28,7.28,0,0,1-2.2-.75,6.05,6.05,0,0,1-2.82-3.61,6.49,6.49,0,0,1-.32-1.87v-.47A7,7,0,0,1,204.72,8,6.18,6.18,0,0,1,209.08,6.13ZM204.34,22.3c0,.32.2.47.47.47s.47-.19.47-.47-.2-.46-.47-.46S204.34,22,204.34,22.3Zm.1-10.4c0,.31.19.47.46.47s.47-.2.47-.47-.19-.47-.47-.47S204.44,11.62,204.44,11.9Zm.14,2.3c0,.31.19.46.47.46s.46-.19.46-.46-.19-.47-.46-.47S204.58,13.92,204.58,14.2ZM205,24.55v.05a.37.37,0,0,0,.42.42h0c.31,0,.47-.19.47-.47s-.17-.4-.52-.46S205,24.24,205,24.55Zm.33-14.81c0,.31.19.47.47.47s.47-.19.47-.47-.2-.47-.47-.47S205.28,9.47,205.28,9.74Zm.47,6.47c0,.31.19.47.47.47s.47-.2.47-.47-.2-.47-.47-.47S205.75,15.94,205.75,16.21Zm.8,10c0,.23.15.37.46.42h.05a.37.37,0,0,0,.42-.42v0c0-.32-.19-.47-.47-.47S206.61,25.9,206.55,26.24Zm.56-17.9c0,.25.17.4.51.46s.37-.15.43-.46V8.29a.38.38,0,0,0-.43-.42h0C207.26,7.91,207.11,8.06,207.11,8.34Zm.7,8.9v.05a.37.37,0,0,0,.42.42h.05c.31,0,.47-.19.47-.47s-.17-.4-.52-.47S207.87,16.93,207.81,17.24Zm1,9.52c0,.25.17.4.51.47s.41-.18.47-.52-.16-.37-.47-.42h-.05C209,26.33,208.8,26.48,208.8,26.76ZM209.45,8v0a.37.37,0,0,0,.42.43h0c.31,0,.47-.2.47-.47s-.17-.41-.52-.47S209.51,7.7,209.45,8Zm.66,9.47c0,.31.19.47.47.47s.47-.2.47-.47-.2-.47-.47-.47S210.11,17.2,210.11,17.48Zm1,9c0,.23.16.37.47.42h.05c.31,0,.47-.19.47-.47s-.18-.4-.52-.47S211.15,26.09,211.09,26.43Zm.56-17.77c0,.32.2.47.47.47s.47-.19.47-.47-.19-.46-.47-.46S211.65,8.39,211.65,8.66Zm.57,9.8c0,.31.19.47.47.47s.46-.2.46-.47S213,18,212.69,18,212.22,18.19,212.22,18.46Zm.7,6.47c0,.31.2.47.47.47s.47-.2.47-.47-.2-.47-.47-.47S212.92,24.66,212.92,24.93Zm.23-14.48c0,.25.18.4.52.46s.37-.15.42-.46v0a.37.37,0,0,0-.42-.42h0C213.31,10,213.15,10.17,213.15,10.45Zm.29,10c0,.31.19.47.46.47s.47-.2.47-.47-.19-.47-.47-.47S213.44,20.16,213.44,20.43Zm.23,2.3c0,.31.2.47.47.47s.47-.2.47-.47-.2-.47-.47-.47S213.67,22.45,213.67,22.73Zm.05-10c0,.31.19.46.47.46s.46-.19.46-.46-.19-.47-.46-.47S213.72,12.42,213.72,12.7Z"/><path class="cls-2" d="M220.94,6.13h9.23a1.85,1.85,0,0,1,1.88,1.46,2.58,2.58,0,0,1,0,.46,1.84,1.84,0,0,1-1.46,1.79,2.56,2.56,0,0,1-.47,0h-2.71V26.71A1.86,1.86,0,0,1,226,28.59a2.56,2.56,0,0,1-.47,0,1.83,1.83,0,0,1-1.78-1.45,2.56,2.56,0,0,1,0-.47V9.88h-2.77a1.83,1.83,0,0,1-1.87-1.45A1.93,1.93,0,0,1,219,8a1.83,1.83,0,0,1,1.45-1.78A2.69,2.69,0,0,1,220.94,6.13ZM220.42,8c0,.31.2.47.47.47s.47-.2.47-.47-.19-.47-.47-.47S220.42,7.73,220.42,8Zm2.35,0c0,.31.19.47.47.47s.47-.2.47-.47-.2-.47-.47-.47S222.77,7.73,222.77,8Zm2.34,0c0,.31.2.47.47.47s.47-.2.47-.47-.2-.47-.47-.47S225.11,7.73,225.11,8Zm0,2.34c0,.31.2.47.47.47s.47-.2.47-.47-.2-.47-.47-.47S225.11,10.08,225.11,10.35Zm0,2.35c0,.31.2.46.47.46s.47-.19.47-.46-.2-.47-.47-.47S225.11,12.42,225.11,12.7Zm0,2.34c0,.31.2.47.47.47s.47-.2.47-.47-.2-.47-.47-.47S225.11,14.77,225.11,15Zm0,2.34c0,.32.2.47.47.47s.47-.19.47-.47-.2-.47-.47-.47S225.11,17.11,225.11,17.38Zm0,2.35c0,.31.2.47.47.47s.47-.2.47-.47-.2-.47-.47-.47S225.11,19.45,225.11,19.73Zm0,2.34c0,.31.2.47.47.47s.47-.2.47-.47-.2-.47-.47-.47S225.11,21.8,225.11,22.07Zm0,2.34c0,.32.2.47.47.47s.47-.19.47-.47-.2-.46-.47-.46S225.11,24.14,225.11,24.41Zm0,2.35c0,.31.2.47.47.47s.47-.2.47-.47-.2-.47-.47-.47S225.11,26.48,225.11,26.76ZM227.46,8c0,.31.19.47.46.47s.47-.2.47-.47-.19-.47-.47-.47S227.46,7.73,227.46,8Zm2.34,0c0,.31.2.47.47.47s.47-.2.47-.47-.2-.47-.47-.47S229.8,7.73,229.8,8Z"/><path class="cls-2" d="M241.19,6.13H242a6,6,0,0,1,4.87,2.53,7.12,7.12,0,0,1,1.27,3.85v.14a1.84,1.84,0,0,1-1.45,1.87,2.69,2.69,0,0,1-.47.05,1.82,1.82,0,0,1-1.78-1.45,6.36,6.36,0,0,0-.52-2.07,2.54,2.54,0,0,0-2.34-1.17,2.48,2.48,0,0,0-2.49,1.46,3.66,3.66,0,0,0-.28,1.26v.28a2.88,2.88,0,0,0,.84,2c.39.44,1.45.65,3.19.65a6.93,6.93,0,0,1,3.28,1.55,6.85,6.85,0,0,1,2,4.83v.37a6.13,6.13,0,0,1-6.24,6.33h-.65a6.07,6.07,0,0,1-5-2.48,6.89,6.89,0,0,1-1.22-3.7v-.29a1.85,1.85,0,0,1,1.46-1.87,2.59,2.59,0,0,1,.47-.05,1.84,1.84,0,0,1,1.78,1.46,6.13,6.13,0,0,0,.42,2,2.68,2.68,0,0,0,2.44,1.17,2.43,2.43,0,0,0,2.53-1.45,4.49,4.49,0,0,0,.28-1.31,3.16,3.16,0,0,0-1-2.39,5.64,5.64,0,0,0-3-.52,7.48,7.48,0,0,1-2.21-.75,6,6,0,0,1-2.81-3.61,6.2,6.2,0,0,1-.33-1.87v-.47A7,7,0,0,1,236.84,8,6.18,6.18,0,0,1,241.19,6.13ZM236.46,22.3c0,.32.2.47.47.47s.47-.19.47-.47-.2-.46-.47-.46S236.46,22,236.46,22.3Zm.09-10.4c0,.31.2.47.47.47s.47-.2.47-.47-.19-.47-.47-.47S236.55,11.62,236.55,11.9Zm.14,2.3c0,.31.2.46.47.46s.47-.19.47-.46-.19-.47-.47-.47S236.69,13.92,236.69,14.2Zm.38,10.35v.05a.37.37,0,0,0,.42.42h0c.31,0,.47-.19.47-.47s-.17-.4-.52-.46S237.12,24.24,237.07,24.55Zm.33-14.81c0,.31.19.47.47.47s.47-.19.47-.47-.2-.47-.47-.47S237.4,9.47,237.4,9.74Zm.47,6.47c0,.31.19.47.47.47s.46-.2.46-.47-.19-.47-.46-.47S237.87,15.94,237.87,16.21Zm.79,10c0,.23.16.37.47.42h.05a.37.37,0,0,0,.42-.42v0c0-.32-.19-.47-.47-.47S238.73,25.9,238.66,26.24Zm.57-17.9c0,.25.17.4.51.46s.37-.15.42-.46V8.29a.37.37,0,0,0-.42-.42h-.05C239.38,7.91,239.23,8.06,239.23,8.34Zm.7,8.9v.05a.37.37,0,0,0,.42.42h.05c.31,0,.47-.19.47-.47s-.18-.4-.52-.47S240,16.93,239.93,17.24Zm1,9.52c0,.25.18.4.52.47s.41-.18.47-.52-.16-.37-.47-.42h-.05C241.07,26.33,240.91,26.48,240.91,26.76ZM241.57,8v0a.37.37,0,0,0,.42.43h0c.31,0,.47-.2.47-.47s-.17-.41-.52-.47S241.62,7.7,241.57,8Zm.66,9.47c0,.31.19.47.46.47s.47-.2.47-.47S243,17,242.69,17,242.23,17.2,242.23,17.48Zm1,9c0,.23.16.37.47.42h0c.31,0,.46-.19.46-.47s-.17-.4-.51-.47S243.27,26.09,243.21,26.43Zm.56-17.77c0,.32.2.47.47.47s.47-.19.47-.47-.19-.46-.47-.46S243.77,8.39,243.77,8.66Zm.57,9.8c0,.31.19.47.46.47s.47-.2.47-.47-.19-.47-.47-.47S244.34,18.19,244.34,18.46Zm.7,6.47c0,.31.19.47.47.47s.47-.2.47-.47-.2-.47-.47-.47S245,24.66,245,24.93Zm.23-14.48c0,.25.17.4.52.46s.37-.15.42-.46v0a.37.37,0,0,0-.42-.42h0C245.43,10,245.27,10.17,245.27,10.45Zm.28,10c0,.31.2.47.47.47s.47-.2.47-.47S246.3,20,246,20,245.55,20.16,245.55,20.43Zm.24,2.3c0,.31.19.47.47.47s.47-.2.47-.47-.2-.47-.47-.47S245.79,22.45,245.79,22.73Zm.05-10c0,.31.19.46.46.46s.47-.19.47-.46-.19-.47-.47-.47S245.84,12.42,245.84,12.7Z"/></g><g class="cls-1"><path class="cls-2" d="M7.84,35.88h.47a4.71,4.71,0,0,1,4,2.5,10.16,10.16,0,0,1,1.22,4.77V53a1.54,1.54,0,0,1-1.22,1.56,1.72,1.72,0,0,1-.39,0,1.52,1.52,0,0,1-1.48-1.21,1.72,1.72,0,0,1,0-.39V46.82H5.73V53a1.53,1.53,0,0,1-1.21,1.56,1.72,1.72,0,0,1-.39,0,1.52,1.52,0,0,1-1.48-1.21,1.72,1.72,0,0,1,0-.39V43.15A9.09,9.09,0,0,1,4.37,37.6,4.62,4.62,0,0,1,7.84,35.88ZM3.78,43.3c0,.27.16.4.39.4s.39-.17.39-.4-.16-.39-.39-.39S3.78,43.08,3.78,43.3Zm0,2q0,.39.39.39h0q.39,0,.39-.39t-.39-.39h0Q3.78,44.92,3.78,45.26Zm0,2q0,.39.39.39t.39-.39q0-.39-.39-.39T3.78,47.21Zm0,1.95q0,.39.39.39t.39-.39q0-.39-.39-.39T3.78,49.16Zm0,2q0,.39.39.39c.26,0,.39-.17.39-.39s-.16-.39-.39-.39S3.78,50.89,3.78,51.12Zm0,2q0,.39.39.39t.39-.39q0-.39-.39-.39T3.78,53.07ZM4,41.35q.06.39.39.39c.27,0,.4-.16.4-.39S4.63,41,4.4,41,4,41.12,4,41.35Zm.59-1.83q0,.39.39.39t.39-.39c0-.27-.16-.4-.39-.4S4.6,39.29,4.6,39.52ZM5.73,43.7h4.69c0-2-.47-3.51-1.41-4.42A2.08,2.08,0,0,0,8.08,39q-1.95,0-2.31,4A6.52,6.52,0,0,0,5.73,43.7Zm0,1.56q0,.39.39.39t.39-.39q0-.39-.39-.39T5.77,45.26ZM5.85,38v0q0,.39.39.39c.21,0,.34-.14.39-.43s-.14-.34-.43-.39S5.9,37.73,5.85,38Zm1.84-.54q0,.39.39.39t.39-.39c0-.27-.17-.4-.39-.4S7.69,37.22,7.69,37.45Zm0,7.81q0,.39.39.39t.39-.39q-.06-.39-.39-.39T7.73,45.26ZM9.52,38q0,.39.39.39T10.3,38q0-.39-.39-.39T9.52,38Zm.16,7.27q0,.39.39.39t.39-.39q0-.39-.39-.39T9.68,45.26Zm1.05-5.78q.06.39.39.39t.39-.39q0-.39-.39-.39T10.73,39.48Zm.63,1.87q0,.39.39.39t.39-.39q0-.39-.39-.39T11.36,41.35Zm.23,1.92q.06.39.39.39t.39-.39c0-.27-.16-.4-.39-.4S11.59,43,11.59,43.27Zm0,1.95q.06.39.39.39t.39-.39q0-.39-.39-.39T11.59,45.22Zm0,2q.06.39.39.39t.39-.39q0-.39-.39-.39T11.59,47.17Zm0,1.95c0,.27.17.4.39.4s.39-.17.39-.4-.16-.39-.39-.39S11.59,48.9,11.59,49.12Zm0,2q.06.39.39.39t.39-.39q0-.39-.39-.39T11.59,51.08Zm0,2q.06.39.39.39t.39-.39q0-.39-.39-.39T11.59,53Z"/><path class="cls-2" d="M17.61,35.88h4.1a5.74,5.74,0,0,1,3.75,1.53A5.26,5.26,0,0,1,27,41.12v.47a5.28,5.28,0,0,1-1.45,3.67A5.81,5.81,0,0,1,27,49V53a1.54,1.54,0,0,1-1.21,1.56,1.84,1.84,0,0,1-.39,0,1.53,1.53,0,0,1-1.49-1.21,2.58,2.58,0,0,1,0-.39v-3.4c0-1.51-.47-2.4-1.4-2.65a3.78,3.78,0,0,0-1.37-.16H19.14V53a1.54,1.54,0,0,1-1.22,1.56,1.72,1.72,0,0,1-.39,0,1.52,1.52,0,0,1-1.48-1.21A1.72,1.72,0,0,1,16,53V37.48a1.53,1.53,0,0,1,1.21-1.56A2.87,2.87,0,0,1,17.61,35.88Zm-.43,1.57c0,.26.16.39.39.39s.39-.17.39-.39-.16-.4-.39-.4S17.18,37.22,17.18,37.45Zm0,1.95c0,.26.16.39.39.39s.39-.16.39-.39S17.8,39,17.57,39,17.18,39.17,17.18,39.4Zm0,2c0,.26.16.39.39.39s.39-.16.39-.39S17.8,41,17.57,41,17.18,41.12,17.18,41.35Zm0,1.95c0,.27.16.4.39.4s.39-.17.39-.4-.16-.39-.39-.39S17.18,43.08,17.18,43.3Zm0,2c0,.26.16.39.39.39s.39-.16.39-.39-.16-.39-.39-.39S17.18,45,17.18,45.26Zm0,2c0,.26.16.39.39.39s.39-.16.39-.39-.16-.39-.39-.39S17.18,47,17.18,47.21Zm0,1.95c0,.26.16.39.39.39s.39-.16.39-.39-.16-.39-.39-.39S17.18,48.94,17.18,49.16Zm0,2c0,.26.16.39.39.39s.39-.17.39-.39-.16-.39-.39-.39S17.18,50.89,17.18,51.12Zm0,2c0,.26.16.39.39.39s.39-.16.39-.39-.16-.39-.39-.39S17.18,52.84,17.18,53.07Zm2-15.62q0,.39.39.39t.39-.39c0-.27-.17-.4-.39-.4S19.14,37.22,19.14,37.45Zm0,1.56V43.7h1.79c1.55,0,2.46-.46,2.74-1.37a6.15,6.15,0,0,0,.15-1c0-1.56-.92-2.34-2.77-2.34Zm.7,6.25q0,.39.39.39t.39-.39q0-.39-.39-.39T19.84,45.26Zm1.25-7.81q0,.39.39.39t.39-.39c0-.27-.16-.4-.39-.4S21.09,37.22,21.09,37.45Zm.7,7.73q0,.39.39.39t.39-.39q0-.39-.39-.39T21.79,45.18ZM23,37.87c0,.27.17.4.39.4s.39-.17.39-.4-.16-.39-.39-.39S23,37.65,23,37.87Zm.63,6.61c0,.2.14.34.43.39s.3-.13.35-.39v0a.31.31,0,0,0-.35-.35h0Q23.59,44.13,23.59,44.48Zm.31,1.21q0,.39.39.39c.26,0,.39-.17.39-.39s-.16-.39-.39-.39S23.9,45.46,23.9,45.69Zm.55-6.57v0a.32.32,0,0,0,.35.36h0c.26,0,.39-.17.39-.4s-.14-.33-.43-.39S24.49,38.86,24.45,39.12Zm.31,3.79q0,.39.39.39t.39-.39q0-.39-.39-.39T24.76,42.91ZM25,41c0,.26.17.39.4.39s.39-.16.39-.39-.17-.39-.39-.39S25,40.77,25,41Zm0,6.25c0,.19.14.31.4.35h0a.32.32,0,0,0,.36-.35v0q-.06-.39-.39-.39C25.18,46.82,25.05,47,25,47.25Zm0,1.91c0,.26.17.39.4.39s.39-.16.39-.39-.17-.39-.39-.39S25,48.94,25,49.16Zm0,2c0,.26.17.39.4.39s.39-.17.39-.39-.17-.39-.39-.39S25,50.89,25,51.12Zm0,2c0,.26.17.39.4.39s.39-.16.39-.39-.17-.39-.39-.39S25,52.84,25,53.07Z"/><path class="cls-2" d="M31,35.88h7.74a1.54,1.54,0,0,1,1.56,1.21,1.84,1.84,0,0,1,0,.39A1.53,1.53,0,0,1,39.14,39a1.84,1.84,0,0,1-.39,0H32.54V43.7h6.21a1.53,1.53,0,0,1,1.56,1.21,1.72,1.72,0,0,1,0,.39,1.52,1.52,0,0,1-1.21,1.48,1.84,1.84,0,0,1-.39,0H32.54v4.69h6.17a1.53,1.53,0,0,1,1.56,1.21,1.84,1.84,0,0,1,0,.39,1.52,1.52,0,0,1-1.21,1.48,1.84,1.84,0,0,1-.39,0H31a1.53,1.53,0,0,1-1.56-1.21,2.58,2.58,0,0,1,0-.39V37.48a1.54,1.54,0,0,1,1.21-1.56A2.87,2.87,0,0,1,31,35.88Zm-.43,1.57c0,.26.17.39.4.39s.39-.17.39-.39-.17-.4-.39-.4S30.58,37.22,30.58,37.45Zm0,1.95c0,.26.17.39.4.39s.39-.16.39-.39S31.2,39,31,39,30.58,39.17,30.58,39.4Zm0,2c0,.26.17.39.4.39s.39-.16.39-.39S31.2,41,31,41,30.58,41.12,30.58,41.35Zm0,1.95c0,.27.17.4.4.4s.39-.17.39-.4-.17-.39-.39-.39S30.58,43.08,30.58,43.3Zm0,2c0,.26.17.39.4.39s.39-.16.39-.39-.17-.39-.39-.39S30.58,45,30.58,45.26Zm0,2c0,.26.17.39.4.39s.39-.16.39-.39-.17-.39-.39-.39S30.58,47,30.58,47.21Zm0,1.95c0,.26.17.39.4.39s.39-.16.39-.39-.17-.39-.39-.39S30.58,48.94,30.58,49.16Zm0,2c0,.26.17.39.4.39s.39-.17.39-.39-.17-.39-.39-.39S30.58,50.89,30.58,51.12Zm0,2c0,.26.17.39.4.39s.39-.16.39-.39-.17-.39-.39-.39S30.58,52.84,30.58,53.07Zm2-15.62q0,.39.39.39t.39-.39c0-.27-.16-.4-.39-.4S32.54,37.22,32.54,37.45Zm0,7.81q0,.39.39.39t.39-.39q0-.39-.39-.39T32.54,45.26Zm0,7.81q0,.39.39.39t.39-.39q0-.39-.39-.39T32.54,53.07Zm2-15.62q0,.39.39.39t.39-.39c0-.27-.16-.4-.39-.4S34.49,37.22,34.49,37.45Zm0,7.81q0,.39.39.39t.39-.39q0-.39-.39-.39T34.49,45.26Zm0,7.81q0,.39.39.39t.39-.39q0-.39-.39-.39T34.49,53.07Zm1.95-15.62q.06.39.39.39c.26,0,.4-.17.4-.39s-.17-.4-.4-.4S36.44,37.22,36.44,37.45Zm0,7.81q.06.39.39.39c.26,0,.4-.16.4-.39s-.17-.39-.4-.39S36.44,45,36.44,45.26Zm0,7.81q.06.39.39.39c.26,0,.4-.16.4-.39s-.17-.39-.4-.39S36.44,52.84,36.44,53.07Zm2-15.62q0,.39.39.39t.39-.39c0-.27-.16-.4-.39-.4S38.4,37.22,38.4,37.45Zm0,7.81q0,.39.39.39t.39-.39q0-.39-.39-.39T38.4,45.26Zm0,7.81q0,.39.39.39t.39-.39q0-.39-.39-.39T38.4,53.07Z"/><path class="cls-2" d="M54.52,35.88a5,5,0,0,1,4.41,2.46,6.25,6.25,0,0,1,.78,2.89v0a1.54,1.54,0,0,1-1.21,1.57l-.39,0a1.52,1.52,0,0,1-1.48-1.21A3.82,3.82,0,0,0,56.2,40a2,2,0,0,0-2-1c-1.56,0-2.34.92-2.34,2.77v6.95c0,1.85.78,2.78,2.34,2.78a2,2,0,0,0,2.11-1.33,8.75,8.75,0,0,0,.32-1.56,1.61,1.61,0,0,1,1.52-1,1.52,1.52,0,0,1,1.48,1.21,1.84,1.84,0,0,1,0,.39v.12a6,6,0,0,1-1.25,3.48,5.12,5.12,0,0,1-4,1.83H54a4.89,4.89,0,0,1-4.41-2.5,5.64,5.64,0,0,1-.82-2.81v-8.2a5.73,5.73,0,0,1,1.79-4,5.59,5.59,0,0,1,3.36-1.21ZM50,42q0,.39.39.39t.39-.39c0-.27-.16-.4-.39-.4S50,41.79,50,42ZM50,44q0,.39.39.39t.39-.39q0-.39-.39-.39T50,44Zm0,2q0,.39.39.39t.39-.39q0-.39-.39-.39T50,45.92Zm0,1.95c0,.27.16.4.39.4s.39-.17.39-.4-.16-.39-.39-.39S50,47.65,50,47.87Zm.08,2q0,.39.39.39t.39-.39q-.06-.39-.39-.39T50,49.83Zm.11-9.73q.06.39.39.39t.39-.39q0-.39-.39-.39T50.14,40.1Zm.59,11.52c0,.27.16.4.39.4s.39-.17.39-.4-.16-.39-.39-.39S50.73,51.4,50.73,51.62Zm.39-13.2q0,.39.39.39t.39-.39q0-.39-.39-.39T51.12,38.42ZM52.25,52.8q.06.39.39.39c.26,0,.39-.17.39-.39s-.16-.39-.39-.39S52.25,52.57,52.25,52.8Zm.59-15.28v0q0,.39.39.39c.21,0,.34-.14.39-.43s-.14-.34-.43-.39S52.88,37.26,52.84,37.52ZM54.21,53v0q0,.39.39.39c.2,0,.33-.14.39-.43s-.13-.3-.39-.35h0A.31.31,0,0,0,54.21,53Zm.54-15.51q.06.39.39.39t.39-.39q0-.39-.39-.39C54.88,37.16,54.75,37.3,54.75,37.52Zm1.29,15v0q0,.39.39.39c.21,0,.34-.14.39-.43s-.14-.33-.43-.39S56.09,52.22,56,52.48Zm.47-14.14q0,.39.39.39t.39-.39q0-.39-.39-.39T56.51,38.34Zm.78,12.74c0,.19.13.3.39.35h0a.31.31,0,0,0,.35-.35v0q0-.39-.39-.39C57.47,50.65,57.34,50.79,57.29,51.08ZM57.53,40c0,.27.16.39.39.39s.39-.16.39-.39-.17-.39-.39-.39S57.53,39.76,57.53,40Zm.23,9.18q0,.39.39.39t.39-.39q0-.39-.39-.39T57.76,49.16Z"/><path class="cls-2" d="M67.92,35.88a5,5,0,0,1,4.41,2.46,6.24,6.24,0,0,1,.79,2.89v8.13a5.81,5.81,0,0,1-1.53,3.79,5.27,5.27,0,0,1-3.71,1.48h-.47A5,5,0,0,1,63,52.21a5.84,5.84,0,0,1-.82-2.81V41.12a5.71,5.71,0,0,1,1.8-4,6,6,0,0,1,2.92-1.21Zm-4.57,5.47q0,.39.39.39t.39-.39q0-.39-.39-.39T63.35,41.35Zm0,1.45q0,.39.39.39c.26,0,.39-.17.39-.39s-.16-.39-.39-.39S63.35,42.57,63.35,42.8Zm0,2q0,.39.39.39t.39-.39q0-.39-.39-.39T63.35,44.75Zm0,2q0,.39.39.39t.39-.39q0-.39-.39-.39C63.48,46.34,63.35,46.48,63.35,46.7Zm0,2q0,.39.39.39t.39-.39q0-.39-.39-.39T63.35,48.66Zm.23,1.91c0,.26.17.39.4.39s.39-.16.39-.39-.17-.39-.39-.39S63.58,50.34,63.58,50.57Zm.2-11.09q0,.39.39.39t.39-.39q0-.39-.39-.39T63.78,39.48Zm.86,12.73q0,.39.39.39t.39-.39q0-.39-.39-.39T64.64,52.21ZM65,38c0,.19.13.31.39.35h0a.31.31,0,0,0,.35-.35v0q0-.39-.39-.39C65.21,37.6,65.08,37.75,65,38Zm.27,3.75v6.95c0,1.85.78,2.78,2.35,2.78S70,50.57,70,48.7V41.9c0-1.55-.45-2.46-1.37-2.74a4.84,4.84,0,0,0-1-.15C66.08,39,65.3,39.93,65.3,41.78ZM66.4,53q0,.39.39.39t.39-.39q0-.39-.39-.39T66.4,53Zm.5-15.54c0,.26.17.39.4.39s.39-.17.39-.39-.17-.4-.39-.4S66.9,37.22,66.9,37.45ZM68.31,53c0,.19.13.31.39.35h0a.3.3,0,0,0,.35-.35v0q0-.39-.39-.39C68.49,52.56,68.36,52.71,68.31,53Zm.51-15.31q0,.39.39.39t.39-.39q0-.39-.39-.39T68.82,37.68ZM70,52.05c0,.27.16.4.39.4s.39-.17.39-.4-.16-.39-.39-.39S70,51.83,70,52.05Zm.35-13.24v0q0,.39.39.39c.21,0,.34-.14.39-.43s-.13-.3-.39-.35h0A.31.31,0,0,0,70.38,38.81ZM71,50.37c0,.27.16.4.39.4s.39-.17.39-.4-.16-.39-.39-.39S71,50.15,71,50.37Zm.11-9.72c0,.21.15.34.43.39s.31-.13.36-.39v0c0-.24-.12-.35-.36-.35h0C71.22,40.29,71.08,40.42,71.08,40.65Zm.08,2q.06.39.39.39t.39-.39q0-.39-.39-.39T71.16,42.6Zm0,1.95c0,.27.17.4.39.4s.39-.17.39-.4-.16-.39-.39-.39S71.16,44.33,71.16,44.55Zm0,2q.06.39.39.39t.39-.39q0-.39-.39-.39T71.16,46.51Zm0,2q.06.39.39.39t.39-.39q0-.39-.39-.39T71.16,48.46Z"/><path class="cls-2" d="M77.18,35.88c.86,0,1.47.71,1.84,2.11Q82.92,48.31,83,48.54H83q4.26-11.57,4.53-12a1.61,1.61,0,0,1,1.33-.67,1.54,1.54,0,0,1,1.49,1.21,2.77,2.77,0,0,1,0,.39V53a1.53,1.53,0,0,1-1.21,1.56,1.72,1.72,0,0,1-.39,0,1.52,1.52,0,0,1-1.48-1.21,1.72,1.72,0,0,1,0-.39V46.16h0c-1.8,4.88-2.77,7.47-2.93,7.77a1.66,1.66,0,0,1-1.37.7c-.86,0-1.47-.7-1.83-2.11-1.59-4.16-2.39-6.29-2.39-6.36h0V53a1.54,1.54,0,0,1-1.22,1.56,1.72,1.72,0,0,1-.39,0,1.52,1.52,0,0,1-1.48-1.21,1.72,1.72,0,0,1,0-.39V37.48a1.53,1.53,0,0,1,1.21-1.56A2.87,2.87,0,0,1,77.18,35.88Zm-.43,1.57q.06.39.39.39t.39-.39c0-.27-.16-.4-.39-.4S76.75,37.22,76.75,37.45Zm.71,1.67a.76.76,0,0,0-.32-.11q-.39,0-.39.39t.39.39a.31.31,0,0,0,.35-.27.66.66,0,0,0,.36.15c.2,0,.33-.14.39-.43s-.13-.3-.39-.35h0A.4.4,0,0,0,77.46,39.12Zm-.71,2.23q.06.39.39.39t.39-.39q0-.39-.39-.39T76.75,41.35Zm0,1.95c0,.27.17.4.39.4s.39-.17.39-.4-.16-.39-.39-.39S76.75,43.08,76.75,43.3Zm0,2q.06.39.39.39t.39-.39q0-.39-.39-.39T76.75,45.26Zm0,2q.06.39.39.39t.39-.39q0-.39-.39-.39T76.75,47.21Zm0,1.95q.06.39.39.39t.39-.39q0-.39-.39-.39T76.75,49.16Zm0,2q.06.39.39.39c.26,0,.39-.17.39-.39s-.16-.39-.39-.39S76.75,50.89,76.75,51.12Zm0,2q.06.39.39.39t.39-.39q0-.39-.39-.39T76.75,53.07Zm1.37-12q0,.39.39.39c.26,0,.39-.17.39-.39s-.16-.39-.39-.39S78.12,40.89,78.12,41.12Zm.7,1.79v0q.06.39.39.39c.21,0,.34-.14.39-.43s-.14-.33-.43-.39S78.87,42.65,78.82,42.91Zm.67,1.84q0,.39.39.39t.39-.39q0-.39-.39-.39T79.49,44.75Zm.7,1.84q0,.39.39.39t.39-.39q0-.39-.39-.39T80.19,46.59Zm.66,1.83q.06.39.39.39c.27,0,.4-.16.4-.39s-.17-.39-.4-.39S80.85,48.19,80.85,48.42Zm.71,1.84q0,.39.39.39t.39-.39q0-.39-.39-.39T81.56,50.26Zm.66,1.83c0,.21.14.34.43.39a.93.93,0,0,1,.31-.07.37.37,0,0,0,.36.23q.39,0,.39-.39t-.39-.39l-.32.08a.35.35,0,0,0-.35-.24h0Q82.22,51.76,82.22,52.09Zm1.41-1.72v0q0,.39.39.39c.21,0,.34-.14.39-.43s-.13-.3-.39-.35h0A.31.31,0,0,0,83.63,50.37Zm.66-1.79q0,.39.39.39t.39-.39q0-.39-.39-.39T84.29,48.58Zm.7-1.84c0,.26.17.39.4.39s.39-.16.39-.39-.17-.39-.39-.39S85,46.51,85,46.74Zm.67-1.83q0,.39.39.39t.39-.39q0-.39-.39-.39T85.66,44.91Zm.7-1.84v0a.31.31,0,0,0,.35.35h0q.39,0,.39-.39c0-.21-.14-.34-.43-.39S86.41,42.81,86.36,43.07Zm.67-1.8c0,.21.14.34.43.39s.3-.13.35-.39v0a.31.31,0,0,0-.35-.35h0C87.16,40.91,87,41.05,87,41.27Zm1.44-2h0c0-.13-.12-.19-.31-.19s-.39.16-.39.39.16.39.39.39.39-.17.39-.39h0c0,.13.12.19.31.19s.39-.16.39-.39-.16-.39-.39-.39S88.47,39,88.47,39.24Zm-.08-1.64q.06.39.39.39h0q.39,0,.39-.39t-.39-.39h0Q88.39,37.26,88.39,37.6Zm.08,3.6q0,.39.39.39t.39-.39c0-.27-.16-.4-.39-.4S88.47,41,88.47,41.2Zm0,1.95q0,.39.39.39t.39-.39q0-.39-.39-.39T88.47,43.15Zm0,2q0,.39.39.39t.39-.39q0-.39-.39-.39T88.47,45.1Zm0,1.95c0,.27.16.4.39.4s.39-.17.39-.4-.16-.39-.39-.39S88.47,46.83,88.47,47.05Zm0,2q0,.39.39.39t.39-.39q0-.39-.39-.39T88.47,49Zm0,2q0,.39.39.39t.39-.39q0-.39-.39-.39T88.47,51Zm0,1.95q0,.39.39.39t.39-.39q0-.39-.39-.39T88.47,52.91Z"/><path class="cls-2" d="M94.49,35.88h7.7a1.54,1.54,0,0,1,1.56,1.21,2.87,2.87,0,0,1,0,.39A1.54,1.54,0,0,1,102.58,39a1.84,1.84,0,0,1-.39,0H99.92v12.5h2.27a1.53,1.53,0,0,1,1.56,1.21,2.87,2.87,0,0,1,0,.39,1.53,1.53,0,0,1-1.21,1.48,1.84,1.84,0,0,1-.39,0h-7.7a1.53,1.53,0,0,1-1.56-1.21,1.72,1.72,0,0,1,0-.39,1.52,1.52,0,0,1,1.21-1.48,1.84,1.84,0,0,1,.39,0H96.8V39H94.49a1.54,1.54,0,0,1-1.56-1.21,1.84,1.84,0,0,1,0-.39,1.53,1.53,0,0,1,1.21-1.49A2.87,2.87,0,0,1,94.49,35.88Zm-.43,1.57q0,.39.39.39t.39-.39c0-.27-.16-.4-.39-.4S94.06,37.22,94.06,37.45Zm0,15.62q0,.39.39.39t.39-.39q0-.39-.39-.39T94.06,53.07Zm2-15.62q.06.39.39.39c.27,0,.4-.17.4-.39s-.17-.4-.4-.4S96,37.22,96,37.45Zm0,15.62q.06.39.39.39c.27,0,.4-.16.4-.39s-.17-.39-.4-.39S96,52.84,96,53.07Zm2-15.62q0,.39.39.39t.39-.39c0-.27-.16-.4-.39-.4S98,37.22,98,37.45Zm0,1.95q0,.39.39.39t.39-.39q0-.39-.39-.39T98,39.4Zm0,2q0,.39.39.39t.39-.39q0-.39-.39-.39T98,41.35Zm0,1.95c0,.27.16.4.39.4s.39-.17.39-.4-.16-.39-.39-.39S98,43.08,98,43.3Zm0,2q0,.39.39.39t.39-.39q0-.39-.39-.39T98,45.26Zm0,2q0,.39.39.39t.39-.39q0-.39-.39-.39T98,47.21Zm0,1.95q0,.39.39.39t.39-.39q0-.39-.39-.39T98,49.16Zm0,2q0,.39.39.39c.26,0,.39-.17.39-.39s-.16-.39-.39-.39S98,50.89,98,51.12Zm0,2q0,.39.39.39t.39-.39q0-.39-.39-.39T98,53.07Zm2-15.62q0,.39.39.39t.39-.39c0-.27-.16-.4-.39-.4S99.92,37.22,99.92,37.45Zm0,15.62q0,.39.39.39t.39-.39q0-.39-.39-.39T99.92,53.07Zm2-15.62q.06.39.39.39t.39-.39c0-.27-.16-.4-.39-.4S101.87,37.22,101.87,37.45Zm0,15.62q.06.39.39.39t.39-.39q0-.39-.39-.39T101.87,53.07Z"/><path class="cls-2" d="M107.85,35.88c.78,0,1.38.59,1.8,1.76T114,46.39h0V37.48a1.53,1.53,0,0,1,1.21-1.56,2.58,2.58,0,0,1,.39,0,1.53,1.53,0,0,1,1.48,1.21,1.84,1.84,0,0,1,0,.39V53A1.53,1.53,0,0,1,116,54.59a1.84,1.84,0,0,1-.39,0c-.78,0-1.37-.58-1.8-1.76t-4.37-8.75h0V53a1.54,1.54,0,0,1-1.21,1.56,1.84,1.84,0,0,1-.39,0,1.53,1.53,0,0,1-1.49-1.21,2.58,2.58,0,0,1,0-.39V37.48a1.54,1.54,0,0,1,1.21-1.56A2.87,2.87,0,0,1,107.85,35.88Zm-.43,1.57c0,.26.17.39.4.39s.39-.17.39-.39-.17-.4-.39-.4S107.42,37.22,107.42,37.45Zm0,1.95c0,.26.17.39.4.39s.39-.16.39-.39S108,39,107.82,39,107.42,39.17,107.42,39.4Zm0,2c0,.26.17.39.4.39s.39-.16.39-.39S108,41,107.82,41,107.42,41.12,107.42,41.35Zm0,1.95c0,.27.17.4.4.4s.39-.17.39-.4-.17-.39-.39-.39S107.42,43.08,107.42,43.3Zm0,2c0,.26.17.39.4.39s.39-.16.39-.39-.17-.39-.39-.39S107.42,45,107.42,45.26Zm0,2c0,.26.17.39.4.39s.39-.16.39-.39-.17-.39-.39-.39S107.42,47,107.42,47.21Zm0,1.95c0,.26.17.39.4.39s.39-.16.39-.39-.17-.39-.39-.39S107.42,48.94,107.42,49.16Zm0,2c0,.26.17.39.4.39s.39-.17.39-.39-.17-.39-.39-.39S107.42,50.89,107.42,51.12Zm0,2c0,.26.17.39.4.39s.39-.16.39-.39-.17-.39-.39-.39S107.42,52.84,107.42,53.07Zm.86-13.87c0,.21.15.34.43.39s.31-.13.36-.39v0a.32.32,0,0,0-.36-.35h0C108.41,38.84,108.28,39,108.28,39.2Zm.9,1.72v0c0,.26.16.39.39.39s.34-.14.39-.43-.14-.34-.43-.39S109.23,40.66,109.18,40.92Zm.86,1.76q0,.39.39.39t.39-.39q0-.39-.39-.39T110,42.68Zm.86,1.76c0,.21.14.34.43.39s.34-.15.39-.43-.13-.31-.39-.35h0Q110.9,44.1,110.9,44.44Zm.9,1.76q0,.39.39.39t.39-.39c0-.27-.16-.4-.39-.4S111.8,46,111.8,46.2Zm.86,1.71q0,.39.39.39t.39-.39q0-.39-.39-.39T112.66,47.91Zm.9,1.76v0a.3.3,0,0,0,.35.35h0q.39,0,.39-.39c0-.21-.14-.34-.43-.39S113.6,49.41,113.56,49.67Zm.86,1.76q0,.39.39.39t.39-.39q0-.39-.39-.39T114.42,51.43Zm.82-14.1q0,.39.39.39t.39-.39q0-.39-.39-.39T115.24,37.33Zm0,2q0,.39.39.39t.39-.39q0-.39-.39-.39T115.24,39.28Zm0,1.95c0,.27.16.39.39.39s.39-.16.39-.39-.16-.39-.39-.39S115.24,41,115.24,41.23Zm0,2q0,.39.39.39c.26,0,.39-.17.39-.39s-.16-.39-.39-.39S115.24,43,115.24,43.19Zm0,2q0,.39.39.39t.39-.39q0-.39-.39-.39T115.24,45.14Zm0,2q0,.39.39.39t.39-.39q0-.39-.39-.39T115.24,47.09Zm0,2q0,.39.39.39c.26,0,.39-.17.39-.39s-.16-.39-.39-.39S115.24,48.82,115.24,49.05Zm0,2q0,.39.39.39T116,51q0-.39-.39-.39T115.24,51Zm0,2q0,.39.39.39T116,53q0-.39-.39-.39C115.37,52.59,115.24,52.73,115.24,53Z"/><path class="cls-2" d="M124.81,35.88h.55a4.62,4.62,0,0,1,3.87,2.23,9.29,9.29,0,0,1,1.36,5v.16a1.53,1.53,0,0,1-1.21,1.56,1.84,1.84,0,0,1-.39,0,1.53,1.53,0,0,1-1.48-1.17,9,9,0,0,0-.51-2.93,2.52,2.52,0,0,0-1.13-1.57,4.33,4.33,0,0,0-.75-.15c-.88,0-1.49.54-1.83,1.64a11.72,11.72,0,0,0-.51,3.28v2.58q0,3.95,1.72,4.88a3.44,3.44,0,0,0,1,.12h2V48.77h-.55a5.21,5.21,0,0,1-.78,0,5.21,5.21,0,0,1-.78,0h-.2a1.53,1.53,0,0,1-1.56-1.21,1.72,1.72,0,0,1,0-.39,1.59,1.59,0,0,1,1.29-1.52,1.84,1.84,0,0,1,.39,0h3c1.14,0,1.82.21,2,.62a1.51,1.51,0,0,1,.35,1V53a1.53,1.53,0,0,1-1.21,1.56,1.84,1.84,0,0,1-.39,0h-4.1a4.69,4.69,0,0,1-4-2.5,10.06,10.06,0,0,1-1.22-4.76V43.58a11.81,11.81,0,0,1,1.06-5A6.16,6.16,0,0,1,122,36.94,4.82,4.82,0,0,1,124.81,35.88Zm-4,7.46q0,.39.39.39t.39-.39q0-.39-.39-.39T120.83,43.34Zm0,2q0,.39.39.39c.26,0,.39-.17.39-.39s-.16-.39-.39-.39S120.83,45.07,120.83,45.3Zm0,2q0,.39.39.39t.39-.39q0-.39-.39-.39T120.83,47.25Zm.23-5.82q0,.39.39.39t.39-.39q0-.39-.39-.39T121.06,41.43Zm0,7.77q0,.39.39.39t.39-.39q0-.39-.39-.39C121.19,48.84,121.06,49,121.06,49.2Zm.55-9.65c0,.21.14.34.43.4s.34-.15.39-.43-.13-.31-.39-.36h0Q121.61,39.22,121.61,39.55ZM121.69,51q0,.39.39.39t.39-.39q-.06-.39-.39-.39T121.69,51Zm1.13-13q0,.39.39.39t.39-.39q0-.39-.39-.39T122.82,38Zm.12,14.49q0,.39.39.39t.39-.39q-.06-.39-.39-.39C123.07,52.16,122.94,52.3,122.94,52.52Zm1.71-15.07c0,.26.17.39.4.39s.39-.17.39-.39-.17-.4-.39-.4S124.65,37.22,124.65,37.45Zm.08,9.76q.06.39.39.39t.39-.39q0-.39-.39-.39T124.73,47.21Zm0,5.86q0,.39.39.39t.39-.39q0-.39-.39-.39T124.77,53.07ZM126.49,38c0,.21.14.34.43.39s.31-.13.35-.39v0a.31.31,0,0,0-.35-.35h0C126.62,37.59,126.49,37.73,126.49,38Zm.16,9.22q0,.39.39.39t.39-.39q0-.39-.39-.39T126.65,47.17Zm.08,5.9q0,.39.39.39t.39-.39q-.06-.39-.39-.39T126.73,53.07Zm1-13.67q0,.39.39.39t.39-.39q0-.39-.39-.39T127.78,39.4Zm.62,1.83c0,.27.17.39.4.39s.39-.16.39-.39-.17-.39-.39-.39S128.4,41,128.4,41.23Zm.2,6q0,.39.39.39t.39-.39q0-.39-.39-.39T128.6,47.21Zm0-4q0,.39.39.39c.26,0,.39-.17.39-.39s-.16-.39-.39-.39S128.64,43,128.64,43.19Zm0,5.93c0,.27.16.4.39.4s.39-.17.39-.4-.16-.39-.39-.39S128.64,48.9,128.64,49.12Zm0,2q0,.39.39.39t.39-.39q0-.39-.39-.39T128.64,51.08Zm0,2q0,.39.39.39t.39-.39q0-.39-.39-.39T128.64,53Z"/><path class="cls-2" d="M140.62,35.88h7.7a1.54,1.54,0,0,1,1.56,1.21,2.87,2.87,0,0,1,0,.39A1.54,1.54,0,0,1,148.71,39a1.84,1.84,0,0,1-.39,0h-6.18V43.7h6.21a1.54,1.54,0,0,1,1.57,1.21,2.58,2.58,0,0,1,0,.39,1.53,1.53,0,0,1-1.22,1.48,1.72,1.72,0,0,1-.39,0h-6.21V53a1.53,1.53,0,0,1-1.21,1.56,1.72,1.72,0,0,1-.39,0,1.52,1.52,0,0,1-1.48-1.21,1.72,1.72,0,0,1,0-.39V37.48a1.53,1.53,0,0,1,1.21-1.56A2.87,2.87,0,0,1,140.62,35.88Zm-.43,1.57q0,.39.39.39t.39-.39c0-.27-.16-.4-.39-.4S140.19,37.22,140.19,37.45Zm0,1.95q0,.39.39.39t.39-.39q0-.39-.39-.39T140.19,39.4Zm0,2q0,.39.39.39t.39-.39q0-.39-.39-.39T140.19,41.35Zm0,1.95c0,.27.16.4.39.4s.39-.17.39-.4-.16-.39-.39-.39S140.19,43.08,140.19,43.3Zm0,2q0,.39.39.39t.39-.39q0-.39-.39-.39T140.19,45.26Zm0,2q0,.39.39.39t.39-.39q0-.39-.39-.39T140.19,47.21Zm0,1.95q0,.39.39.39t.39-.39q0-.39-.39-.39T140.19,49.16Zm0,2q0,.39.39.39c.26,0,.39-.17.39-.39s-.16-.39-.39-.39S140.19,50.89,140.19,51.12Zm0,2q0,.39.39.39t.39-.39q0-.39-.39-.39T140.19,53.07Zm1.95-15.62q.06.39.39.39t.39-.39c0-.27-.16-.4-.39-.4S142.14,37.22,142.14,37.45Zm0,7.81q.06.39.39.39t.39-.39q0-.39-.39-.39T142.14,45.26Zm2-7.81q0,.39.39.39t.39-.39c0-.27-.16-.4-.39-.4S144.1,37.22,144.1,37.45Zm0,7.81q0,.39.39.39t.39-.39c0-.26-.16-.39-.39-.39S144.1,45,144.1,45.26Zm2-7.81q0,.39.39.39t.39-.39c0-.27-.16-.4-.39-.4S146.05,37.22,146.05,37.45Zm0,7.81q0,.39.39.39t.39-.39q0-.39-.39-.39T146.05,45.26Zm1.95,0q.06.39.39.39t.39-.39q0-.39-.39-.39T148,45.26Z"/><path class="cls-2" d="M158.16,35.88a5,5,0,0,1,4.42,2.46,6.34,6.34,0,0,1,.78,2.89v8.13a5.81,5.81,0,0,1-1.53,3.79,5.25,5.25,0,0,1-3.71,1.48h-.47a5,5,0,0,1-4.41-2.42,5.84,5.84,0,0,1-.82-2.81V41.12a5.71,5.71,0,0,1,1.8-4,6,6,0,0,1,2.93-1.21Zm-4.57,5.47q.06.39.39.39t.39-.39q0-.39-.39-.39T153.59,41.35Zm0,1.45q.06.39.39.39c.26,0,.39-.17.39-.39s-.16-.39-.39-.39S153.59,42.57,153.59,42.8Zm0,2q.06.39.39.39t.39-.39q0-.39-.39-.39T153.59,44.75Zm0,2q.06.39.39.39t.39-.39q0-.39-.39-.39C153.72,46.34,153.59,46.48,153.59,46.7Zm0,2q.06.39.39.39t.39-.39q0-.39-.39-.39T153.59,48.66Zm.24,1.91q0,.39.39.39t.39-.39q0-.39-.39-.39T153.83,50.57ZM154,39.48q0,.39.39.39t.39-.39q0-.39-.39-.39T154,39.48Zm.86,12.73q0,.39.39.39t.39-.39q0-.39-.39-.39T154.88,52.21ZM155.27,38c0,.19.13.31.39.35h0a.3.3,0,0,0,.35-.35v0q0-.39-.39-.39C155.45,37.6,155.32,37.75,155.27,38Zm.28,3.75v6.95c0,1.85.78,2.78,2.34,2.78s2.34-.94,2.34-2.81V41.9c0-1.55-.45-2.46-1.36-2.74a5,5,0,0,0-1-.15C156.33,39,155.55,39.93,155.55,41.78ZM156.64,53q0,.39.39.39t.39-.39q0-.39-.39-.39T156.64,53Zm.51-15.54q0,.39.39.39t.39-.39c0-.27-.16-.4-.39-.4S157.15,37.22,157.15,37.45ZM158.55,53c0,.19.13.31.39.35h0a.3.3,0,0,0,.35-.35v0q0-.39-.39-.39C158.74,52.56,158.61,52.71,158.55,53Zm.51-15.31q0,.39.39.39t.39-.39q0-.39-.39-.39T159.06,37.68Zm1.21,14.37c0,.27.16.4.39.4s.39-.17.39-.4-.16-.39-.39-.39S160.27,51.83,160.27,52.05Zm.35-13.24v0q.06.39.39.39c.21,0,.34-.14.39-.43s-.13-.3-.39-.35h0A.32.32,0,0,0,160.62,38.81Zm.59,11.56c0,.27.16.4.39.4s.39-.17.39-.4-.16-.39-.39-.39S161.21,50.15,161.21,50.37Zm.12-9.72c0,.21.14.34.43.39s.3-.13.35-.39v0a.31.31,0,0,0-.35-.35h0Q161.33,40.31,161.33,40.65Zm.07,2c0,.26.17.39.4.39s.39-.16.39-.39-.17-.39-.39-.39S161.4,42.37,161.4,42.6Zm0,1.95c0,.27.17.4.4.4s.39-.17.39-.4-.17-.39-.39-.39S161.4,44.33,161.4,44.55Zm0,2c0,.26.17.39.4.39s.39-.16.39-.39-.17-.39-.39-.39S161.4,46.28,161.4,46.51Zm0,2c0,.26.17.39.4.39s.39-.16.39-.39-.17-.39-.39-.39S161.4,48.23,161.4,48.46Z"/><path class="cls-2" d="M167.42,35.88h4.11a5.78,5.78,0,0,1,3.75,1.53,5.25,5.25,0,0,1,1.48,3.71v.47a5.32,5.32,0,0,1-1.44,3.67A5.85,5.85,0,0,1,176.76,49V53a1.53,1.53,0,0,1-1.21,1.56,1.84,1.84,0,0,1-.39,0,1.53,1.53,0,0,1-1.49-1.21,2.56,2.56,0,0,1,0-.39v-3.4c0-1.51-.47-2.4-1.41-2.65a3.78,3.78,0,0,0-1.37-.16H169V53a1.54,1.54,0,0,1-1.21,1.56,1.84,1.84,0,0,1-.39,0,1.53,1.53,0,0,1-1.49-1.21,2.58,2.58,0,0,1,0-.39V37.48A1.54,1.54,0,0,1,167,35.92,2.87,2.87,0,0,1,167.42,35.88ZM167,37.45c0,.26.17.39.4.39s.39-.17.39-.39-.17-.4-.39-.4S167,37.22,167,37.45Zm0,1.95c0,.26.17.39.4.39s.39-.16.39-.39-.17-.39-.39-.39S167,39.17,167,39.4Zm0,2c0,.26.17.39.4.39s.39-.16.39-.39-.17-.39-.39-.39S167,41.12,167,41.35Zm0,1.95c0,.27.17.4.4.4s.39-.17.39-.4-.17-.39-.39-.39S167,43.08,167,43.3Zm0,2c0,.26.17.39.4.39s.39-.16.39-.39-.17-.39-.39-.39S167,45,167,45.26Zm0,2c0,.26.17.39.4.39s.39-.16.39-.39-.17-.39-.39-.39S167,47,167,47.21Zm0,1.95c0,.26.17.39.4.39s.39-.16.39-.39-.17-.39-.39-.39S167,48.94,167,49.16Zm0,2c0,.26.17.39.4.39s.39-.17.39-.39-.17-.39-.39-.39S167,50.89,167,51.12Zm0,2c0,.26.17.39.4.39s.39-.16.39-.39-.17-.39-.39-.39S167,52.84,167,53.07Zm2-15.62q0,.39.39.39t.39-.39c0-.27-.16-.4-.39-.4S169,37.22,169,37.45ZM169,39V43.7h1.79c1.55,0,2.46-.46,2.74-1.37a7.43,7.43,0,0,0,.16-1c0-1.56-.93-2.34-2.78-2.34Zm.7,6.25q0,.39.39.39t.39-.39q0-.39-.39-.39T169.65,45.26Zm1.25-7.81q0,.39.39.39t.39-.39c0-.27-.16-.4-.39-.4S170.9,37.22,170.9,37.45Zm.7,7.73q.06.39.39.39c.27,0,.4-.16.4-.39s-.17-.39-.4-.39S171.6,45,171.6,45.18Zm1.18-7.31c0,.27.16.4.39.4s.39-.17.39-.4-.17-.39-.39-.39S172.78,37.65,172.78,37.87Zm.62,6.61c0,.2.14.34.43.39s.31-.13.35-.39v0a.3.3,0,0,0-.35-.35h0Q173.4,44.13,173.4,44.48Zm.31,1.21q.06.39.39.39c.26,0,.39-.17.39-.39s-.16-.39-.39-.39S173.71,45.46,173.71,45.69Zm.55-6.57v0a.32.32,0,0,0,.35.36h0c.26,0,.39-.17.39-.4s-.14-.33-.43-.39S174.31,38.86,174.26,39.12Zm.31,3.79q.06.39.39.39t.39-.39q0-.39-.39-.39T174.57,42.91Zm.24-1.91q0,.39.39.39t.39-.39q0-.39-.39-.39T174.81,41Zm0,6.25c0,.19.13.31.39.35h0a.31.31,0,0,0,.35-.35v0q0-.39-.39-.39C175,46.82,174.86,47,174.81,47.25Zm0,1.91q0,.39.39.39t.39-.39q0-.39-.39-.39T174.81,49.16Zm0,2q0,.39.39.39c.26,0,.39-.17.39-.39s-.16-.39-.39-.39S174.81,50.89,174.81,51.12Zm0,2q0,.39.39.39t.39-.39q0-.39-.39-.39T174.81,53.07Z"/><path class="cls-2" d="M186.79,35.88h3.86a6,6,0,0,1,3.83,1.45A5.1,5.1,0,0,1,196.12,41v8.28a6,6,0,0,1-1.25,3.48,5.12,5.12,0,0,1-4,1.83h-4.1a1.53,1.53,0,0,1-1.56-1.21,1.72,1.72,0,0,1,0-.39V37.48a1.53,1.53,0,0,1,1.21-1.56A2.58,2.58,0,0,1,186.79,35.88Zm-.43,1.57q0,.39.39.39t.39-.39c0-.27-.16-.4-.39-.4S186.36,37.22,186.36,37.45Zm0,1.95q0,.39.39.39t.39-.39q0-.39-.39-.39T186.36,39.4Zm0,2q0,.39.39.39t.39-.39q0-.39-.39-.39T186.36,41.35Zm0,1.95c0,.27.16.4.39.4s.39-.17.39-.4-.16-.39-.39-.39S186.36,43.08,186.36,43.3Zm0,2q0,.39.39.39t.39-.39q0-.39-.39-.39T186.36,45.26Zm0,2q0,.39.39.39t.39-.39q0-.39-.39-.39T186.36,47.21Zm0,1.95q0,.39.39.39t.39-.39q0-.39-.39-.39T186.36,49.16Zm0,2q0,.39.39.39c.26,0,.39-.17.39-.39s-.16-.39-.39-.39S186.36,50.89,186.36,51.12Zm0,1.91v.08c0,.23.15.35.35.35h.08c.23,0,.35-.15.35-.35V53c0-.23-.15-.35-.35-.35h-.08C186.48,52.71,186.36,52.83,186.36,53Zm1.95-15.58q0,.39.39.39t.39-.39c0-.27-.16-.4-.39-.4S188.31,37.22,188.31,37.45Zm0,1.56v12.5H190c1.22,0,2-.18,2.23-.55a3.08,3.08,0,0,0,.74-2.3V41.9c0-1.31-.27-2.09-.82-2.35a3.27,3.27,0,0,0-1.92-.54ZM189,53.07q0,.39.39.39t.39-.39q-.06-.39-.39-.39T189,53.07Zm1.28-15.62q.06.39.39.39c.27,0,.4-.17.4-.39s-.17-.4-.4-.4S190.26,37.22,190.26,37.45ZM190.89,53q0,.39.39.39h0q.39,0,.39-.39t-.39-.39h0Q190.89,52.69,190.89,53Zm1.25-15.12q0,.39.39.39t.39-.39q0-.39-.39-.39T192.14,37.91Zm.55,14.42c0,.21.14.34.43.39s.33-.14.39-.43-.13-.31-.39-.35h0Q192.69,52,192.69,52.33Zm.89-13.13c0,.21.15.34.43.39s.31-.13.36-.39v0a.32.32,0,0,0-.36-.35h0C193.72,38.84,193.58,39,193.58,39.2Zm.24,11.57c0,.2.14.33.43.39s.34-.15.39-.43-.13-.31-.39-.36h0C194,50.41,193.82,50.54,193.82,50.77Zm.35-9.73q0,.39.39.39T195,41q0-.39-.39-.39T194.17,41Zm0,2q0,.39.39.39T195,43q0-.39-.39-.39T194.17,43Zm0,2q0,.39.39.39T195,45c0-.27-.16-.4-.39-.4S194.17,44.72,194.17,45Zm0,1.95q0,.39.39.39t.39-.39q0-.39-.39-.39T194.17,46.9Zm0,2q0,.39.39.39t.39-.39q0-.39-.39-.39T194.17,48.85Z"/><path class="cls-2" d="M200.19,35.88h7.7a1.54,1.54,0,0,1,1.56,1.21,2.87,2.87,0,0,1,0,.39A1.54,1.54,0,0,1,208.28,39a1.84,1.84,0,0,1-.39,0h-2.27v12.5h2.27a1.53,1.53,0,0,1,1.56,1.21,2.87,2.87,0,0,1,0,.39,1.53,1.53,0,0,1-1.21,1.48,1.84,1.84,0,0,1-.39,0h-7.7a1.53,1.53,0,0,1-1.56-1.21,1.72,1.72,0,0,1,0-.39,1.52,1.52,0,0,1,1.21-1.48,1.84,1.84,0,0,1,.39,0h2.3V39h-2.3a1.54,1.54,0,0,1-1.56-1.21,1.84,1.84,0,0,1,0-.39,1.53,1.53,0,0,1,1.21-1.49A2.87,2.87,0,0,1,200.19,35.88Zm-.43,1.57q0,.39.39.39t.39-.39c0-.27-.16-.4-.39-.4S199.76,37.22,199.76,37.45Zm0,15.62q0,.39.39.39t.39-.39q0-.39-.39-.39T199.76,53.07Zm2-15.62q.06.39.39.39t.39-.39c0-.27-.16-.4-.39-.4S201.71,37.22,201.71,37.45Zm0,15.62q.06.39.39.39t.39-.39q0-.39-.39-.39T201.71,53.07Zm2-15.62q0,.39.39.39t.39-.39c0-.27-.16-.4-.39-.4S203.67,37.22,203.67,37.45Zm0,1.95q0,.39.39.39t.39-.39q0-.39-.39-.39T203.67,39.4Zm0,2q0,.39.39.39t.39-.39q0-.39-.39-.39T203.67,41.35Zm0,1.95c0,.27.16.4.39.4s.39-.17.39-.4-.16-.39-.39-.39S203.67,43.08,203.67,43.3Zm0,2q0,.39.39.39t.39-.39q0-.39-.39-.39T203.67,45.26Zm0,2q0,.39.39.39t.39-.39q0-.39-.39-.39T203.67,47.21Zm0,1.95q0,.39.39.39t.39-.39q0-.39-.39-.39T203.67,49.16Zm0,2q0,.39.39.39c.26,0,.39-.17.39-.39s-.16-.39-.39-.39S203.67,50.89,203.67,51.12Zm0,2q0,.39.39.39t.39-.39q0-.39-.39-.39T203.67,53.07Zm2-15.62q0,.39.39.39t.39-.39c0-.27-.16-.4-.39-.4S205.62,37.22,205.62,37.45Zm0,15.62q0,.39.39.39t.39-.39q0-.39-.39-.39T205.62,53.07Zm1.95-15.62q.06.39.39.39t.39-.39c0-.27-.16-.4-.39-.4S207.57,37.22,207.57,37.45Zm0,15.62q.06.39.39.39t.39-.39q0-.39-.39-.39T207.57,53.07Z"/><path class="cls-2" d="M213.55,35.88c.78,0,1.38.59,1.8,1.76t4.38,8.75h0V37.48A1.54,1.54,0,0,1,221,35.92a2.58,2.58,0,0,1,.39,0,1.53,1.53,0,0,1,1.48,1.21,1.84,1.84,0,0,1,0,.39V53a1.53,1.53,0,0,1-1.21,1.56,1.84,1.84,0,0,1-.39,0c-.78,0-1.38-.58-1.8-1.76t-4.37-8.75h0V53a1.54,1.54,0,0,1-1.21,1.56,1.84,1.84,0,0,1-.39,0A1.53,1.53,0,0,1,212,53.42a2.58,2.58,0,0,1,0-.39V37.48a1.54,1.54,0,0,1,1.21-1.56A2.87,2.87,0,0,1,213.55,35.88Zm-.43,1.57q.06.39.39.39t.39-.39c0-.27-.16-.4-.39-.4S213.12,37.22,213.12,37.45Zm0,1.95q.06.39.39.39t.39-.39q0-.39-.39-.39T213.12,39.4Zm0,2q.06.39.39.39t.39-.39q0-.39-.39-.39T213.12,41.35Zm0,1.95c0,.27.17.4.39.4s.39-.17.39-.4-.16-.39-.39-.39S213.12,43.08,213.12,43.3Zm0,2q.06.39.39.39t.39-.39q0-.39-.39-.39T213.12,45.26Zm0,2q.06.39.39.39t.39-.39q0-.39-.39-.39T213.12,47.21Zm0,1.95q.06.39.39.39t.39-.39q0-.39-.39-.39T213.12,49.16Zm0,2q.06.39.39.39c.26,0,.39-.17.39-.39s-.16-.39-.39-.39S213.12,50.89,213.12,51.12Zm0,2q.06.39.39.39t.39-.39q0-.39-.39-.39T213.12,53.07ZM214,39.2c0,.21.15.34.43.39s.31-.13.35-.39v0a.31.31,0,0,0-.35-.35h0C214.11,38.84,214,39,214,39.2Zm.9,1.72v0q0,.39.39.39c.21,0,.34-.14.39-.43s-.14-.34-.43-.39S214.93,40.66,214.88,40.92Zm.86,1.76q0,.39.39.39t.39-.39q0-.39-.39-.39T215.74,42.68Zm.86,1.76c0,.21.14.34.43.39s.34-.15.39-.43-.13-.31-.39-.35h0Q216.6,44.1,216.6,44.44Zm.9,1.76q0,.39.39.39t.39-.39c0-.27-.16-.4-.39-.4S217.5,46,217.5,46.2Zm.86,1.71q0,.39.39.39t.39-.39q0-.39-.39-.39T218.36,47.91Zm.9,1.76v0a.3.3,0,0,0,.35.35h0q.39,0,.39-.39c0-.21-.15-.34-.43-.39S219.3,49.41,219.26,49.67Zm.86,1.76q0,.39.39.39t.39-.39q-.06-.39-.39-.39T220.12,51.43Zm.82-14.1q0,.39.39.39t.39-.39q-.06-.39-.39-.39T220.94,37.33Zm0,2q0,.39.39.39t.39-.39q-.06-.39-.39-.39T220.94,39.28Zm0,1.95c0,.27.16.39.39.39s.39-.16.39-.39-.17-.39-.39-.39S220.94,41,220.94,41.23Zm0,2q0,.39.39.39c.26,0,.39-.17.39-.39s-.17-.39-.39-.39S220.94,43,220.94,43.19Zm0,2q0,.39.39.39t.39-.39q-.06-.39-.39-.39T220.94,45.14Zm0,2q0,.39.39.39t.39-.39q-.06-.39-.39-.39T220.94,47.09Zm0,2q0,.39.39.39c.26,0,.39-.17.39-.39s-.17-.39-.39-.39S220.94,48.82,220.94,49.05Zm0,2q0,.39.39.39t.39-.39q-.06-.39-.39-.39T220.94,51Zm0,2q0,.39.39.39t.39-.39q-.06-.39-.39-.39C221.07,52.59,220.94,52.73,220.94,53Z"/><path class="cls-2" d="M227,35.88h7.73a1.54,1.54,0,0,1,1.56,1.21,1.84,1.84,0,0,1,0,.39A1.53,1.53,0,0,1,235.08,39a1.84,1.84,0,0,1-.39,0h-6.21V43.7h6.21a1.53,1.53,0,0,1,1.56,1.21,1.72,1.72,0,0,1,0,.39,1.52,1.52,0,0,1-1.21,1.48,1.84,1.84,0,0,1-.39,0h-6.21v4.69h6.17a1.53,1.53,0,0,1,1.56,1.21,1.84,1.84,0,0,1,0,.39A1.52,1.52,0,0,1,235,54.59a1.84,1.84,0,0,1-.39,0H227a1.54,1.54,0,0,1-1.57-1.21,2.58,2.58,0,0,1,0-.39V37.48a1.54,1.54,0,0,1,1.22-1.56A2.58,2.58,0,0,1,227,35.88Zm-.43,1.57q0,.39.39.39t.39-.39c0-.27-.17-.4-.39-.4S226.53,37.22,226.53,37.45Zm0,1.95q0,.39.39.39t.39-.39q-.06-.39-.39-.39T226.53,39.4Zm0,2q0,.39.39.39t.39-.39q-.06-.39-.39-.39T226.53,41.35Zm0,1.95c0,.27.16.4.39.4s.39-.17.39-.4-.17-.39-.39-.39S226.53,43.08,226.53,43.3Zm0,2q0,.39.39.39t.39-.39q-.06-.39-.39-.39T226.53,45.26Zm0,2q0,.39.39.39t.39-.39q-.06-.39-.39-.39T226.53,47.21Zm0,1.95q0,.39.39.39t.39-.39q-.06-.39-.39-.39T226.53,49.16Zm0,2q0,.39.39.39c.26,0,.39-.17.39-.39s-.17-.39-.39-.39S226.53,50.89,226.53,51.12Zm0,2q0,.39.39.39t.39-.39q-.06-.39-.39-.39T226.53,53.07Zm1.95-15.62q0,.39.39.39t.39-.39c0-.27-.16-.4-.39-.4S228.48,37.22,228.48,37.45Zm0,7.81q0,.39.39.39t.39-.39q0-.39-.39-.39T228.48,45.26Zm0,7.81q0,.39.39.39t.39-.39q0-.39-.39-.39T228.48,53.07Zm2-15.62c0,.26.16.39.39.39s.39-.17.39-.39-.16-.4-.39-.4S230.43,37.22,230.43,37.45Zm0,7.81c0,.26.16.39.39.39s.39-.16.39-.39-.16-.39-.39-.39S230.43,45,230.43,45.26Zm0,7.81c0,.26.16.39.39.39s.39-.16.39-.39-.16-.39-.39-.39S230.43,52.84,230.43,53.07Zm2-15.62q0,.39.39.39t.39-.39c0-.27-.17-.4-.39-.4S232.39,37.22,232.39,37.45Zm0,7.81q0,.39.39.39t.39-.39q-.06-.39-.39-.39T232.39,45.26Zm0,7.81q0,.39.39.39t.39-.39q-.06-.39-.39-.39T232.39,53.07Zm2-15.62q0,.39.39.39t.39-.39c0-.27-.16-.4-.39-.4S234.34,37.22,234.34,37.45Zm0,7.81q0,.39.39.39t.39-.39q0-.39-.39-.39T234.34,45.26Zm0,7.81q0,.39.39.39t.39-.39q0-.39-.39-.39T234.34,53.07Z"/><path class="cls-2" d="M240.36,35.88h4.1a5.74,5.74,0,0,1,3.75,1.53,5.25,5.25,0,0,1,1.48,3.71v.47a5.32,5.32,0,0,1-1.44,3.67A5.85,5.85,0,0,1,249.69,49V53a1.53,1.53,0,0,1-1.21,1.56,1.72,1.72,0,0,1-.39,0,1.52,1.52,0,0,1-1.48-1.21,1.72,1.72,0,0,1,0-.39v-3.4c0-1.51-.47-2.4-1.41-2.65a3.71,3.71,0,0,0-1.36-.16h-1.92V53a1.53,1.53,0,0,1-1.21,1.56,1.84,1.84,0,0,1-.39,0,1.52,1.52,0,0,1-1.48-1.21,1.72,1.72,0,0,1,0-.39V37.48A1.53,1.53,0,0,1,240,35.92,2.58,2.58,0,0,1,240.36,35.88Zm-.43,1.57q0,.39.39.39t.39-.39c0-.27-.16-.4-.39-.4S239.93,37.22,239.93,37.45Zm0,1.95q0,.39.39.39t.39-.39q0-.39-.39-.39T239.93,39.4Zm0,2q0,.39.39.39t.39-.39q0-.39-.39-.39T239.93,41.35Zm0,1.95c0,.27.16.4.39.4s.39-.17.39-.4-.16-.39-.39-.39S239.93,43.08,239.93,43.3Zm0,2q0,.39.39.39t.39-.39q0-.39-.39-.39T239.93,45.26Zm0,2q0,.39.39.39t.39-.39q0-.39-.39-.39T239.93,47.21Zm0,1.95q0,.39.39.39t.39-.39q0-.39-.39-.39T239.93,49.16Zm0,2q0,.39.39.39c.26,0,.39-.17.39-.39s-.16-.39-.39-.39S239.93,50.89,239.93,51.12Zm0,2q0,.39.39.39t.39-.39q0-.39-.39-.39T239.93,53.07Zm1.95-15.62q0,.39.39.39t.39-.39c0-.27-.16-.4-.39-.4S241.88,37.22,241.88,37.45Zm0,1.56V43.7h1.8c1.54,0,2.45-.46,2.73-1.37a6.08,6.08,0,0,0,.16-1c0-1.56-.93-2.34-2.77-2.34Zm.7,6.25c0,.26.17.39.4.39s.39-.16.39-.39-.17-.39-.39-.39S242.58,45,242.58,45.26Zm1.25-7.81c0,.26.17.39.4.39s.39-.17.39-.39-.17-.4-.39-.4S243.83,37.22,243.83,37.45Zm.71,7.73q0,.39.39.39t.39-.39q0-.39-.39-.39T244.54,45.18Zm1.17-7.31c0,.27.16.4.39.4s.39-.17.39-.4-.16-.39-.39-.39S245.71,37.65,245.71,37.87Zm.62,6.61c0,.2.15.34.43.39s.31-.13.36-.39v0c0-.24-.12-.35-.36-.35h0C246.47,44.12,246.33,44.25,246.33,44.48Zm.32,1.21q0,.39.39.39c.26,0,.39-.17.39-.39s-.16-.39-.39-.39S246.65,45.46,246.65,45.69Zm.54-6.57v0a.32.32,0,0,0,.36.36h0c.26,0,.4-.17.4-.4s-.15-.33-.43-.39S247.24,38.86,247.19,39.12Zm.32,3.79q0,.39.39.39t.39-.39q0-.39-.39-.39T247.51,42.91Zm.23-1.91q0,.39.39.39t.39-.39q0-.39-.39-.39T247.74,41Zm0,6.25c0,.19.13.31.39.35h0a.31.31,0,0,0,.35-.35v0q0-.39-.39-.39C247.92,46.82,247.79,47,247.74,47.25Zm0,1.91q0,.39.39.39t.39-.39q0-.39-.39-.39T247.74,49.16Zm0,2q0,.39.39.39c.26,0,.39-.17.39-.39s-.16-.39-.39-.39S247.74,50.89,247.74,51.12Zm0,2q0,.39.39.39t.39-.39q0-.39-.39-.39T247.74,53.07Z"/></g></g></g></svg>