<svg id="Laag_1" data-name="Laag 1" xmlns="http://www.w3.org/2000/svg" viewBox="0 0 33 33"><path id="pinterest" d="M10.83,12.63a5.84,5.84,0,0,1,1.08-3.57,3.19,3.19,0,0,1,2.63-1.47,2.37,2.37,0,0,1,2,.85,3.37,3.37,0,0,1,.66,2.1,10.4,10.4,0,0,1-.24,1.93c-.2.73-.46,1.6-.77,2.64s-.54,1.78-.7,2.4a2.82,2.82,0,0,0,.58,2.67,3.17,3.17,0,0,0,2.52,1.12c1.81,0,3.29-1,4.46-3.06a14.86,14.86,0,0,0,1.74-7.39,7.28,7.28,0,0,0-2.13-5.43,8.21,8.21,0,0,0-6-2.09,9.35,9.35,0,0,0-7,2.75A9.18,9.18,0,0,0,7,12.7a6,6,0,0,0,1.32,3.88,1.07,1.07,0,0,1,.31,1.08,10.66,10.66,0,0,0-.39,1.55.89.89,0,0,1-.42.51,1,1,0,0,1-.59,0,5.91,5.91,0,0,1-3-2.87,10.23,10.23,0,0,1-1-4.65A11,11,0,0,1,3.7,8.83,11.43,11.43,0,0,1,5.4,5.54,13.86,13.86,0,0,1,8.19,2.71a12.72,12.72,0,0,1,4-2,16.54,16.54,0,0,1,5-.74,13.76,13.76,0,0,1,5.07.93A11.73,11.73,0,0,1,26.2,3.41,11.15,11.15,0,0,1,28.68,7a10.41,10.41,0,0,1,.89,4.22,15.21,15.21,0,0,1-2.94,9.61A9.19,9.19,0,0,1,19,24.63a6.27,6.27,0,0,1-2.91-.69,4.37,4.37,0,0,1-1.9-1.71c-.77,3-1.24,4.78-1.39,5.35A18.23,18.23,0,0,1,10.05,33H8.73a19,19,0,0,1,.16-6.51L11.45,15.8A7.36,7.36,0,0,1,10.83,12.63Z"/></svg>