<svg id="Laag_1" data-name="Laag 1" xmlns="http://www.w3.org/2000/svg" xmlns:xlink="http://www.w3.org/1999/xlink" viewBox="0 0 33 33"><defs><style>.cls-1{fill:none;}.cls-2{clip-path:url(#clip-path);}.cls-3{fill:#fff;}</style><clipPath id="clip-path"><rect class="cls-1" x="0.13" width="32.87" height="32.87"/></clipPath></defs><g id="Group_90" data-name="Group 90"><g class="cls-2"><g id="Group_89" data-name="Group 89"><path id="Path_164" data-name="Path 164" d="M33,16.44A16.44,16.44,0,1,1,16.56,0,16.43,16.43,0,0,1,33,16.44"/><path id="Path_165" data-name="Path 165" class="cls-3" d="M25.35,21.48a1,1,0,0,0-.48.2,2.75,2.75,0,0,1-1.28.43,2.18,2.18,0,0,1-1.36-.51,1.85,1.85,0,0,1-.42-1.39V14.57a.25.25,0,0,1,.25-.23l2.75,0c.2,0,.71,0,.71-.34s-.09-1.19-.09-1.11c0-.28-.34-.34-.45-.34s-2.41.06-3,.06c-.11,0-.19-.2-.19-.28a9.92,9.92,0,0,0-.49-4A4.15,4.15,0,0,0,17.3,6c-2.52,0-4.56,1.53-4.56,4.25a6,6,0,0,0,.39,1.78.1.1,0,0,1-.11.15,5.07,5.07,0,0,0-2.26.59A3.05,3.05,0,0,0,9,15.56a3.26,3.26,0,0,0,1.55,2.64c.8.53,1.34.82,2.13,1.27C13.79,20,14,20.67,14,21.26a1.84,1.84,0,0,1-1.7,2h-.23a3.5,3.5,0,0,1-2.69-2c-.17-.33-.43-.73-.65-.73s-.31.26-.31.6a5.12,5.12,0,0,0,.65,2.32,4.63,4.63,0,0,0,2.66.68,5.83,5.83,0,0,0,2.61-.68,3.34,3.34,0,0,0,1.76-2.69c0-1.22-.68-2.27-2.3-3.18-2.38-1.28-2.95-1.61-2.95-2.86a1.71,1.71,0,0,1,1.7-1.61,2.14,2.14,0,0,1,2.07,1.36c.2.31.46.79.57.79s.46-.37.46-.48a13.36,13.36,0,0,0-.1-1.42.61.61,0,0,0-.22-.49h0l-.82-.37h0l-.07,0-.2-.17a2.66,2.66,0,0,1-.38-1.81,2.7,2.7,0,0,1,2.57-2.83h.12a2.4,2.4,0,0,1,2.62,2.16,4,4,0,0,1,0,.49,16.35,16.35,0,0,1-.2,2.21,7.11,7.11,0,0,1-1.14.91c-.2.11-.25.14-.25.34a.43.43,0,0,0,.31.4c.57.14,1,.22,1,.42,0,1-.11,5.33-.11,6.38a2.84,2.84,0,0,0,.51,2,3.33,3.33,0,0,0,2.63,1.25A4.42,4.42,0,0,0,25,22.84a2,2,0,0,0,.54-.85c0-.31-.11-.51-.23-.51"/></g></g></g></svg>