<svg id="Laag_1" data-name="Laag 1" xmlns="http://www.w3.org/2000/svg" viewBox="0 0 33 33"><path id="tiktok" d="M17.8,0c1.68,0,3.35,0,5,0a8.92,8.92,0,0,0,2.25,5.73A8.77,8.77,0,0,0,30.5,8.2v5.54a12.88,12.88,0,0,1-5.39-1.34A15.91,15.91,0,0,1,23,11.12c0,4,0,8,0,12a11,11,0,0,1-1.74,5.42A9.41,9.41,0,0,1,13.69,33a8.83,8.83,0,0,1-5.23-1.42,10.44,10.44,0,0,1-4.69-7.85c0-.69,0-1.37,0-2C4.29,16,9,11.83,14.33,12.4q.31,0,.63.09c0,2-.05,4.07-.05,6.1A4.34,4.34,0,0,0,9.3,21.48v0a5.87,5.87,0,0,0-.18,2.21,4.47,4.47,0,0,0,4.49,4,4.28,4.28,0,0,0,3.56-2.22A3.25,3.25,0,0,0,17.68,24c.13-2.47.08-4.91.09-7.37C17.78,11.08,17.76,5.56,17.8,0Z"/></svg>