<svg id="Laag_1" data-name="Laag 1" xmlns="http://www.w3.org/2000/svg" viewBox="0 0 33 33"><path id="twitter" d="M33.5,6.89a14.23,14.23,0,0,1-3.39,3.49c0,.2,0,.49,0,.88A19.47,19.47,0,0,1,26.91,21.9a20.56,20.56,0,0,1-3.86,4.41,17.28,17.28,0,0,1-5.4,3.05,19.72,19.72,0,0,1-6.76,1.14,18.76,18.76,0,0,1-10.39-3,12.71,12.71,0,0,0,1.63.08,13.19,13.19,0,0,0,8.4-2.88A6.79,6.79,0,0,1,4.21,20a9.06,9.06,0,0,0,1.27.1,7.12,7.12,0,0,0,1.78-.23,6.7,6.7,0,0,1-3.88-2.33,6.55,6.55,0,0,1-1.54-4.31v-.08A6.73,6.73,0,0,0,4.9,14a6.75,6.75,0,0,1-3-5.63A6.69,6.69,0,0,1,2.8,4.94,19.11,19.11,0,0,0,9,9.93,18.87,18.87,0,0,0,16.75,12a7.36,7.36,0,0,1-.17-1.55,6.53,6.53,0,0,1,2-4.79,6.79,6.79,0,0,1,9.59,0,.93.93,0,0,0,.14.14,13.31,13.31,0,0,0,4.29-1.63,6.59,6.59,0,0,1-3,3.72,13.48,13.48,0,0,0,3.9-1Z"/></svg>